<svg width="125" height="60" viewBox="0 0 125 60" fill="none" xmlns="http://www.w3.org/2000/svg">
<path fill-rule="evenodd" clip-rule="evenodd" d="M2 2H58V7H60V2V0H58H2H0V2V58V60H2H58H60V58V53H58V58H2V2Z" fill="#5765FD"/>
<path d="M19.872 16.192H16.4V14.816H24.992V16.192H21.52V26H19.872V16.192ZM30.7924 26.24C30.099 26.24 29.4964 26.1333 28.9844 25.92C28.483 25.696 28.019 25.3493 27.5924 24.88V26H26.0244V14.176H27.6404V19.344C27.9924 18.928 28.4457 18.6133 29.0004 18.4C29.555 18.1867 30.1524 18.08 30.7924 18.08C31.5604 18.08 32.2484 18.256 32.8564 18.608C33.475 18.9493 33.955 19.4293 34.2964 20.048C34.6484 20.6667 34.8244 21.376 34.8244 22.176C34.8244 22.9867 34.6484 23.7013 34.2964 24.32C33.955 24.928 33.475 25.4027 32.8564 25.744C32.2484 26.0747 31.5604 26.24 30.7924 26.24ZM30.4244 24.96C30.947 24.96 31.4164 24.848 31.8324 24.624C32.259 24.3893 32.5897 24.0587 32.8244 23.632C33.0697 23.2053 33.1924 22.72 33.1924 22.176C33.1924 21.632 33.0697 21.1467 32.8244 20.72C32.5897 20.2933 32.259 19.9627 31.8324 19.728C31.4164 19.4933 30.947 19.376 30.4244 19.376C29.7737 19.376 29.1924 19.552 28.6804 19.904C28.1684 20.256 27.8217 20.7253 27.6404 21.312V23.04C27.843 23.6267 28.1897 24.096 28.6804 24.448C29.1817 24.7893 29.763 24.96 30.4244 24.96ZM37.5309 16.816C37.2642 16.816 37.0402 16.7253 36.8589 16.544C36.6775 16.3627 36.5869 16.1387 36.5869 15.872C36.5869 15.6053 36.6775 15.3813 36.8589 15.2C37.0402 15.0187 37.2642 14.928 37.5309 14.928C37.8082 14.928 38.0375 15.0187 38.2189 15.2C38.4109 15.3813 38.5069 15.6053 38.5069 15.872C38.5069 16.1387 38.4109 16.3627 38.2189 16.544C38.0375 16.7253 37.8082 16.816 37.5309 16.816ZM36.7149 18.32H38.3629V26H36.7149V18.32ZM40.5869 14.176H42.2029V26H40.5869V14.176ZM45.234 16.816C44.9673 16.816 44.7433 16.7253 44.562 16.544C44.3807 16.3627 44.29 16.1387 44.29 15.872C44.29 15.6053 44.3807 15.3813 44.562 15.2C44.7433 15.0187 44.9673 14.928 45.234 14.928C45.5113 14.928 45.7407 15.0187 45.922 15.2C46.114 15.3813 46.21 15.6053 46.21 15.872C46.21 16.1387 46.114 16.3627 45.922 16.544C45.7407 16.7253 45.5113 16.816 45.234 16.816ZM44.418 18.32H46.066V26H44.418V18.32ZM51.122 26.24C50.5887 26.24 50.0233 26.1707 49.426 26.032C48.8287 25.904 48.3593 25.728 48.018 25.504V24.128C48.434 24.3733 48.914 24.576 49.458 24.736C50.002 24.8853 50.53 24.96 51.042 24.96C51.618 24.96 52.0393 24.8907 52.306 24.752C52.5727 24.6133 52.706 24.3893 52.706 24.08C52.706 23.8453 52.642 23.6587 52.514 23.52C52.3967 23.3707 52.1887 23.2373 51.89 23.12C51.602 23.0027 51.1647 22.864 50.578 22.704C49.9487 22.5227 49.4473 22.3413 49.074 22.16C48.7113 21.968 48.434 21.728 48.242 21.44C48.0607 21.152 47.97 20.7787 47.97 20.32C47.97 19.584 48.258 19.0293 48.834 18.656C49.4207 18.272 50.2047 18.08 51.186 18.08C51.698 18.08 52.1993 18.128 52.69 18.224C53.1807 18.32 53.5753 18.4533 53.874 18.624V19.968C53.5647 19.7867 53.1807 19.6427 52.722 19.536C52.274 19.4293 51.8153 19.376 51.346 19.376C50.7807 19.376 50.3487 19.4453 50.05 19.584C49.7513 19.7227 49.602 19.968 49.602 20.32C49.602 20.544 49.666 20.7253 49.794 20.864C49.922 21.0027 50.1247 21.1253 50.402 21.232C50.69 21.328 51.1433 21.456 51.762 21.616C52.7327 21.8827 53.4047 22.1973 53.778 22.56C54.162 22.9227 54.354 23.424 54.354 24.064C54.354 24.7253 54.082 25.2533 53.538 25.648C52.994 26.0427 52.1887 26.24 51.122 26.24ZM57.0621 16.816C56.7955 16.816 56.5715 16.7253 56.3901 16.544C56.2088 16.3627 56.1181 16.1387 56.1181 15.872C56.1181 15.6053 56.2088 15.3813 56.3901 15.2C56.5715 15.0187 56.7955 14.928 57.0621 14.928C57.3395 14.928 57.5688 15.0187 57.7501 15.2C57.9421 15.3813 58.0381 15.6053 58.0381 15.872C58.0381 16.1387 57.9421 16.3627 57.7501 16.544C57.5688 16.7253 57.3395 16.816 57.0621 16.816ZM56.2461 18.32H57.8941V26H56.2461V18.32ZM66.04 14.816H67.672V19.616H73.512V14.816H75.144V26H73.512V20.992H67.672V26H66.04V14.816ZM81.2755 26.24C80.4115 26.24 79.6488 26.08 78.9875 25.76C78.3368 25.4293 77.8248 24.96 77.4515 24.352C77.0888 23.7333 76.9075 23.008 76.9075 22.176C76.9075 21.3547 77.0888 20.6347 77.4515 20.016C77.8142 19.3973 78.3262 18.9227 78.9875 18.592C79.6488 18.2507 80.4115 18.08 81.2755 18.08C82.1395 18.08 82.9022 18.2507 83.5635 18.592C84.2248 18.9227 84.7368 19.3973 85.0995 20.016C85.4728 20.6347 85.6595 21.3547 85.6595 22.176C85.6595 23.008 85.4728 23.7333 85.0995 24.352C84.7368 24.96 84.2248 25.4293 83.5635 25.76C82.9022 26.08 82.1395 26.24 81.2755 26.24ZM81.2755 24.96C82.1075 24.96 82.7688 24.704 83.2595 24.192C83.7502 23.68 83.9955 23.008 83.9955 22.176C83.9955 21.312 83.7502 20.6293 83.2595 20.128C82.7688 19.6267 82.1075 19.376 81.2755 19.376C80.4435 19.376 79.7822 19.6267 79.2915 20.128C78.8008 20.6293 78.5555 21.312 78.5555 22.176C78.5555 23.008 78.8008 23.68 79.2915 24.192C79.7822 24.704 80.4435 24.96 81.2755 24.96ZM87.415 14.176H89.031V26H87.415V14.176ZM94.8301 26.24C94.0621 26.24 93.3688 26.0747 92.7501 25.744C92.1421 25.4027 91.6621 24.928 91.3101 24.32C90.9688 23.7013 90.7981 22.9867 90.7981 22.176C90.7981 21.376 90.9688 20.6667 91.3101 20.048C91.6621 19.4293 92.1421 18.9493 92.7501 18.608C93.3688 18.256 94.0621 18.08 94.8301 18.08C96.2168 18.08 97.2675 18.5013 97.9821 19.344V14.176H99.5981V26H98.0301V24.88C97.6035 25.3493 97.1341 25.696 96.6221 25.92C96.1208 26.1333 95.5235 26.24 94.8301 26.24ZM95.1981 24.96C95.8595 24.96 96.4355 24.7893 96.9261 24.448C97.4275 24.096 97.7795 23.6267 97.9821 23.04V21.312C97.8008 20.7253 97.4541 20.256 96.9421 19.904C96.4408 19.552 95.8595 19.376 95.1981 19.376C94.6755 19.376 94.2008 19.4933 93.7741 19.728C93.3581 19.9627 93.0275 20.2933 92.7821 20.72C92.5475 21.1467 92.4301 21.632 92.4301 22.176C92.4301 22.72 92.5475 23.2053 92.7821 23.632C93.0275 24.0587 93.3581 24.3893 93.7741 24.624C94.2008 24.848 94.6755 24.96 95.1981 24.96ZM102.625 16.816C102.358 16.816 102.134 16.7253 101.953 16.544C101.771 16.3627 101.681 16.1387 101.681 15.872C101.681 15.6053 101.771 15.3813 101.953 15.2C102.134 15.0187 102.358 14.928 102.625 14.928C102.902 14.928 103.131 15.0187 103.313 15.2C103.505 15.3813 103.601 15.6053 103.601 15.872C103.601 16.1387 103.505 16.3627 103.313 16.544C103.131 16.7253 102.902 16.816 102.625 16.816ZM101.809 18.32H103.457V26H101.809V18.32ZM105.681 18.32H107.249V19.424C107.611 18.9653 108.054 18.6293 108.577 18.416C109.11 18.192 109.665 18.08 110.241 18.08C111.265 18.08 112.027 18.352 112.529 18.896C113.03 19.44 113.281 20.1707 113.281 21.088V26H111.665V21.248C111.665 20 111.067 19.376 109.873 19.376C109.361 19.376 108.881 19.4987 108.433 19.744C107.995 19.9787 107.617 20.3413 107.297 20.832V26H105.681V18.32ZM119.29 29.68C118.768 29.68 118.256 29.6373 117.754 29.552C117.264 29.4667 116.848 29.344 116.506 29.184V27.856C117.306 28.2187 118.234 28.4 119.29 28.4C120.282 28.4 121.002 28.1813 121.45 27.744C121.909 27.3173 122.138 26.6667 122.138 25.792V24.976C121.434 25.8187 120.4 26.24 119.034 26.24C118.256 26.24 117.557 26.0693 116.938 25.728C116.32 25.3867 115.834 24.9067 115.482 24.288C115.13 23.6693 114.954 22.96 114.954 22.16C114.954 21.3493 115.125 20.64 115.466 20.032C115.818 19.4133 116.298 18.9333 116.906 18.592C117.525 18.2507 118.218 18.08 118.986 18.08C119.701 18.08 120.304 18.1867 120.794 18.4C121.296 18.6027 121.76 18.944 122.186 19.424V18.32H123.754V25.616C123.754 26.928 123.386 27.9307 122.65 28.624C121.925 29.328 120.805 29.68 119.29 29.68ZM119.354 24.96C120.016 24.96 120.597 24.784 121.098 24.432C121.61 24.08 121.957 23.6107 122.138 23.024V21.296C121.936 20.6987 121.584 20.2293 121.082 19.888C120.592 19.5467 120.016 19.376 119.354 19.376C118.832 19.376 118.357 19.4933 117.93 19.728C117.514 19.952 117.184 20.2773 116.938 20.704C116.704 21.1307 116.586 21.616 116.586 22.16C116.586 22.7147 116.704 23.2053 116.938 23.632C117.184 24.048 117.514 24.3733 117.93 24.608C118.357 24.8427 118.832 24.96 119.354 24.96Z" fill="#28272C"/>
<path d="M21.81 45.21C20.802 45.21 19.906 45 19.122 44.58C18.338 44.16 17.7267 43.5673 17.288 42.802C16.8493 42.0273 16.63 41.1313 16.63 40.114C16.63 39.0967 16.8493 38.2007 17.288 37.426C17.7267 36.6513 18.338 36.054 19.122 35.634C19.906 35.214 20.802 35.004 21.81 35.004C23.154 35.004 24.2787 35.3447 25.184 36.026V37.398C24.372 36.6793 23.2893 36.32 21.936 36.32C21.18 36.32 20.508 36.474 19.92 36.782C19.3413 37.09 18.8887 37.5333 18.562 38.112C18.2353 38.6813 18.072 39.3487 18.072 40.114C18.072 40.8793 18.2353 41.5513 18.562 42.13C18.898 42.7087 19.3553 43.152 19.934 43.46C20.522 43.768 21.1893 43.922 21.936 43.922C22.6267 43.922 23.2427 43.8333 23.784 43.656C24.3347 43.4693 24.8433 43.1753 25.31 42.774V44.16C24.47 44.86 23.3033 45.21 21.81 45.21ZM30.036 45.21C29.28 45.21 28.6127 45.07 28.034 44.79C27.4647 44.5007 27.0167 44.09 26.69 43.558C26.3727 43.0167 26.214 42.382 26.214 41.654C26.214 40.9353 26.3727 40.3053 26.69 39.764C27.0073 39.2227 27.4553 38.8073 28.034 38.518C28.6127 38.2193 29.28 38.07 30.036 38.07C30.792 38.07 31.4593 38.2193 32.038 38.518C32.6167 38.8073 33.0647 39.2227 33.382 39.764C33.7087 40.3053 33.872 40.9353 33.872 41.654C33.872 42.382 33.7087 43.0167 33.382 43.558C33.0647 44.09 32.6167 44.5007 32.038 44.79C31.4593 45.07 30.792 45.21 30.036 45.21ZM30.036 44.09C30.764 44.09 31.3427 43.866 31.772 43.418C32.2013 42.97 32.416 42.382 32.416 41.654C32.416 40.898 32.2013 40.3007 31.772 39.862C31.3427 39.4233 30.764 39.204 30.036 39.204C29.308 39.204 28.7293 39.4233 28.3 39.862C27.8707 40.3007 27.656 40.898 27.656 41.654C27.656 42.382 27.8707 42.97 28.3 43.418C28.7293 43.866 29.308 44.09 30.036 44.09ZM35.408 38.28H36.752V39.246C37.0694 38.854 37.4287 38.56 37.83 38.364C38.2314 38.168 38.6467 38.07 39.076 38.07C39.6174 38.07 40.0467 38.1633 40.364 38.35C40.6814 38.5273 40.9147 38.8027 41.064 39.176C41.3627 38.812 41.7267 38.5367 42.156 38.35C42.5947 38.1633 43.0334 38.07 43.472 38.07C44.2934 38.07 44.886 38.28 45.25 38.7C45.614 39.1107 45.796 39.722 45.796 40.534V45H44.424V40.716C44.424 40.1653 44.3214 39.778 44.116 39.554C43.9107 39.3207 43.5607 39.204 43.066 39.204C42.3567 39.204 41.778 39.512 41.33 40.128C41.3487 40.268 41.358 40.4967 41.358 40.814V45H39.986V40.716C39.986 40.1653 39.8927 39.778 39.706 39.554C39.5194 39.3207 39.1834 39.204 38.698 39.204C37.9887 39.204 37.354 39.6053 36.794 40.408V45H35.408V38.28ZM47.5487 38.28H48.9207V39.274C49.6113 38.4713 50.5447 38.07 51.7207 38.07C52.3927 38.07 52.9947 38.2193 53.5267 38.518C54.068 38.8167 54.488 39.2367 54.7867 39.778C55.0947 40.31 55.2487 40.9307 55.2487 41.64C55.2487 42.34 55.0947 42.9607 54.7867 43.502C54.488 44.0433 54.0727 44.4633 53.5407 44.762C53.0087 45.0607 52.402 45.21 51.7207 45.21C51.1607 45.21 50.638 45.1167 50.1527 44.93C49.6673 44.7433 49.2707 44.468 48.9627 44.104V48.066H47.5487V38.28ZM51.3987 44.09C51.856 44.09 52.2667 43.992 52.6307 43.796C53.004 43.5907 53.2933 43.3013 53.4987 42.928C53.7133 42.5547 53.8207 42.1253 53.8207 41.64C53.8207 41.1547 53.7133 40.73 53.4987 40.366C53.2933 39.9927 53.004 39.708 52.6307 39.512C52.2667 39.3067 51.856 39.204 51.3987 39.204C50.8293 39.204 50.3253 39.3533 49.8867 39.652C49.4573 39.9507 49.1493 40.3613 48.9627 40.884V42.396C49.1213 42.9093 49.4247 43.32 49.8727 43.628C50.3207 43.936 50.8293 44.09 51.3987 44.09ZM58.8434 45.21C58.0314 45.21 57.3781 45.0047 56.8834 44.594C56.3981 44.174 56.1554 43.6093 56.1554 42.9C56.1554 42.1533 56.3887 41.5793 56.8554 41.178C57.3314 40.7673 58.0034 40.562 58.8714 40.562C59.7954 40.562 60.5794 40.7487 61.2234 41.122V40.772C61.2234 40.24 61.0601 39.848 60.7334 39.596C60.4161 39.3347 59.9121 39.204 59.2214 39.204C58.8107 39.204 58.4094 39.246 58.0174 39.33C57.6347 39.4047 57.2894 39.512 56.9814 39.652V38.504C57.2614 38.3733 57.6254 38.2707 58.0734 38.196C58.5214 38.112 58.9554 38.07 59.3754 38.07C60.4861 38.07 61.3074 38.3173 61.8394 38.812C62.3807 39.2973 62.6514 39.974 62.6514 40.842V45H61.3214V44.244C61.0321 44.5613 60.6867 44.804 60.2854 44.972C59.8934 45.1307 59.4127 45.21 58.8434 45.21ZM59.1934 44.132C59.6414 44.132 60.0474 44.0433 60.4114 43.866C60.7754 43.6887 61.0461 43.4413 61.2234 43.124V42.214C60.6167 41.822 59.9401 41.626 59.1934 41.626C58.6521 41.626 58.2461 41.7333 57.9754 41.948C57.7141 42.1533 57.5834 42.4707 57.5834 42.9C57.5834 43.7213 58.1201 44.132 59.1934 44.132ZM64.4061 38.28H65.7781V39.246C66.0954 38.8447 66.4828 38.5507 66.9401 38.364C67.4068 38.168 67.8921 38.07 68.3961 38.07C69.2921 38.07 69.9594 38.308 70.3981 38.784C70.8368 39.26 71.0561 39.8993 71.0561 40.702V45H69.6421V40.842C69.6421 39.75 69.1194 39.204 68.0741 39.204C67.6261 39.204 67.2061 39.3113 66.8141 39.526C66.4314 39.7313 66.1001 40.0487 65.8201 40.478V45H64.4061V38.28ZM73.5997 47.772C73.0957 47.772 72.6757 47.7207 72.3397 47.618V46.512C72.5824 46.6053 72.8811 46.652 73.2357 46.652C73.5624 46.652 73.8191 46.568 74.0057 46.4C74.1924 46.2413 74.3604 45.98 74.5097 45.616L74.8317 44.832L71.8917 38.28H73.3477L75.5877 43.446L77.6737 38.28H79.1297L76.1057 45.756C75.8257 46.456 75.4897 46.9647 75.0977 47.282C74.7151 47.6087 74.2157 47.772 73.5997 47.772Z" fill="#28272C"/>
</svg>
