<svg width="83" height="40" viewBox="0 0 83 40" fill="none" xmlns="http://www.w3.org/2000/svg">
<path fill-rule="evenodd" clip-rule="evenodd" d="M2 2H38V5H40V2V0H38H2H0V2V38V40H2H38H40V38V35H38V38H2V2Z" fill="#5765FD"/>
<path d="M13.248 10.7947H10.9333V9.87732H16.6613V10.7947H14.3467V17.3333H13.248V10.7947Z" fill="#28272C"/>
<path d="M20.5283 17.4933C20.066 17.4933 19.6643 17.4222 19.3229 17.28C18.9887 17.1307 18.6794 16.8995 18.3949 16.5867V17.3333H17.3496V9.45065H18.4269V12.896C18.6616 12.6187 18.9638 12.4089 19.3336 12.2667C19.7034 12.1244 20.1016 12.0533 20.5283 12.0533C21.0403 12.0533 21.4989 12.1707 21.9043 12.4053C22.3167 12.6329 22.6367 12.9529 22.8643 13.3653C23.0989 13.7778 23.2163 14.2507 23.2163 14.784C23.2163 15.3244 23.0989 15.8009 22.8643 16.2133C22.6367 16.6187 22.3167 16.9351 21.9043 17.1627C21.4989 17.3831 21.0403 17.4933 20.5283 17.4933ZM20.2829 16.64C20.6314 16.64 20.9443 16.5653 21.2216 16.416C21.506 16.2595 21.7265 16.0391 21.8829 15.7547C22.0465 15.4702 22.1283 15.1467 22.1283 14.784C22.1283 14.4213 22.0465 14.0978 21.8829 13.8133C21.7265 13.5289 21.506 13.3084 21.2216 13.152C20.9443 12.9955 20.6314 12.9173 20.2829 12.9173C19.8491 12.9173 19.4616 13.0347 19.1203 13.2693C18.7789 13.504 18.5478 13.8169 18.4269 14.208V15.36C18.562 15.7511 18.7931 16.064 19.1203 16.2987C19.4545 16.5262 19.842 16.64 20.2829 16.64Z" fill="#28272C"/>
<path d="M25.0206 11.2107C24.8428 11.2107 24.6935 11.1502 24.5726 11.0293C24.4517 10.9084 24.3913 10.7591 24.3913 10.5813C24.3913 10.4035 24.4517 10.2542 24.5726 10.1333C24.6935 10.0124 24.8428 9.95199 25.0206 9.95199C25.2055 9.95199 25.3584 10.0124 25.4793 10.1333C25.6073 10.2542 25.6713 10.4035 25.6713 10.5813C25.6713 10.7591 25.6073 10.9084 25.4793 11.0293C25.3584 11.1502 25.2055 11.2107 25.0206 11.2107ZM24.4766 12.2133H25.5753V17.3333H24.4766V12.2133Z" fill="#28272C"/>
<path d="M27.0579 9.45065H28.1353V17.3333H27.0579V9.45065Z" fill="#28272C"/>
<path d="M30.156 11.2107C29.9782 11.2107 29.8289 11.1502 29.708 11.0293C29.5871 10.9084 29.5267 10.7591 29.5267 10.5813C29.5267 10.4035 29.5871 10.2542 29.708 10.1333C29.8289 10.0124 29.9782 9.95199 30.156 9.95199C30.3409 9.95199 30.4938 10.0124 30.6147 10.1333C30.7427 10.2542 30.8067 10.4035 30.8067 10.5813C30.8067 10.7591 30.7427 10.9084 30.6147 11.0293C30.4938 11.1502 30.3409 11.2107 30.156 11.2107ZM29.612 12.2133H30.7107V17.3333H29.612V12.2133Z" fill="#28272C"/>
<path d="M34.0813 17.4933C33.7258 17.4933 33.3489 17.4471 32.9507 17.3547C32.5524 17.2693 32.2396 17.152 32.012 17.0027V16.0853C32.2893 16.2489 32.6093 16.384 32.972 16.4907C33.3347 16.5902 33.6867 16.64 34.028 16.64C34.412 16.64 34.6929 16.5938 34.8707 16.5013C35.0484 16.4089 35.1373 16.2595 35.1373 16.0533C35.1373 15.8969 35.0947 15.7724 35.0093 15.68C34.9311 15.5804 34.7924 15.4915 34.5933 15.4133C34.4013 15.3351 34.1098 15.2427 33.7187 15.136C33.2991 15.0151 32.9649 14.8942 32.716 14.7733C32.4742 14.6453 32.2893 14.4853 32.1613 14.2933C32.0404 14.1013 31.98 13.8524 31.98 13.5467C31.98 13.056 32.172 12.6862 32.556 12.4373C32.9471 12.1813 33.4698 12.0533 34.124 12.0533C34.4653 12.0533 34.7996 12.0853 35.1267 12.1493C35.4538 12.2133 35.7169 12.3022 35.916 12.416V13.312C35.7098 13.1911 35.4538 13.0951 35.148 13.024C34.8493 12.9529 34.5436 12.9173 34.2307 12.9173C33.8538 12.9173 33.5658 12.9635 33.3667 13.056C33.1676 13.1484 33.068 13.312 33.068 13.5467C33.068 13.696 33.1107 13.8169 33.196 13.9093C33.2813 14.0018 33.4164 14.0835 33.6013 14.1547C33.7933 14.2187 34.0956 14.304 34.508 14.4107C35.1551 14.5884 35.6031 14.7982 35.852 15.04C36.108 15.2818 36.236 15.616 36.236 16.0427C36.236 16.4835 36.0547 16.8355 35.692 17.0987C35.3293 17.3618 34.7924 17.4933 34.0813 17.4933Z" fill="#28272C"/>
<path d="M38.0414 11.2107C37.8636 11.2107 37.7143 11.1502 37.5934 11.0293C37.4725 10.9084 37.4121 10.7591 37.4121 10.5813C37.4121 10.4035 37.4725 10.2542 37.5934 10.1333C37.7143 10.0124 37.8636 9.95199 38.0414 9.95199C38.2263 9.95199 38.3792 10.0124 38.5001 10.1333C38.6281 10.2542 38.6921 10.4035 38.6921 10.5813C38.6921 10.7591 38.6281 10.9084 38.5001 11.0293C38.3792 11.1502 38.2263 11.2107 38.0414 11.2107ZM37.4974 12.2133H38.5961V17.3333H37.4974V12.2133Z" fill="#28272C"/>
<path d="M44.0267 9.87732H45.1147V13.0773H49.008V9.87732H50.096V17.3333H49.008V13.9947H45.1147V17.3333H44.0267V9.87732Z" fill="#28272C"/>
<path d="M54.1837 17.4933C53.6077 17.4933 53.0992 17.3867 52.6583 17.1733C52.2246 16.9529 51.8832 16.64 51.6343 16.2347C51.3926 15.8222 51.2717 15.3387 51.2717 14.784C51.2717 14.2364 51.3926 13.7564 51.6343 13.344C51.8761 12.9315 52.2174 12.6151 52.6583 12.3947C53.0992 12.1671 53.6077 12.0533 54.1837 12.0533C54.7597 12.0533 55.2681 12.1671 55.709 12.3947C56.1499 12.6151 56.4912 12.9315 56.733 13.344C56.9819 13.7564 57.1063 14.2364 57.1063 14.784C57.1063 15.3387 56.9819 15.8222 56.733 16.2347C56.4912 16.64 56.1499 16.9529 55.709 17.1733C55.2681 17.3867 54.7597 17.4933 54.1837 17.4933ZM54.1837 16.64C54.7383 16.64 55.1792 16.4693 55.5063 16.128C55.8334 15.7867 55.997 15.3387 55.997 14.784C55.997 14.208 55.8334 13.7529 55.5063 13.4187C55.1792 13.0844 54.7383 12.9173 54.1837 12.9173C53.629 12.9173 53.1881 13.0844 52.861 13.4187C52.5339 13.7529 52.3703 14.208 52.3703 14.784C52.3703 15.3387 52.5339 15.7867 52.861 16.128C53.1881 16.4693 53.629 16.64 54.1837 16.64Z" fill="#28272C"/>
<path d="M58.2767 9.45065H59.354V17.3333H58.2767V9.45065Z" fill="#28272C"/>
<path d="M63.2201 17.4933C62.7081 17.4933 62.2459 17.3831 61.8334 17.1627C61.4281 16.9351 61.1081 16.6187 60.8734 16.2133C60.6459 15.8009 60.5321 15.3244 60.5321 14.784C60.5321 14.2507 60.6459 13.7778 60.8734 13.3653C61.1081 12.9529 61.4281 12.6329 61.8334 12.4053C62.2459 12.1707 62.7081 12.0533 63.2201 12.0533C64.1445 12.0533 64.845 12.3342 65.3214 12.896V9.45065H66.3988V17.3333H65.3534V16.5867C65.069 16.8995 64.7561 17.1307 64.4147 17.28C64.0805 17.4222 63.6823 17.4933 63.2201 17.4933ZM63.4654 16.64C63.9063 16.64 64.2903 16.5262 64.6174 16.2987C64.9516 16.064 65.1863 15.7511 65.3214 15.36V14.208C65.2005 13.8169 64.9694 13.504 64.6281 13.2693C64.2939 13.0347 63.9063 12.9173 63.4654 12.9173C63.117 12.9173 62.8005 12.9955 62.5161 13.152C62.2388 13.3084 62.0183 13.5289 61.8548 13.8133C61.6983 14.0978 61.6201 14.4213 61.6201 14.784C61.6201 15.1467 61.6983 15.4702 61.8548 15.7547C62.0183 16.0391 62.2388 16.2595 62.5161 16.416C62.8005 16.5653 63.117 16.64 63.4654 16.64Z" fill="#28272C"/>
<path d="M68.4164 11.2107C68.2386 11.2107 68.0893 11.1502 67.9684 11.0293C67.8475 10.9084 67.7871 10.7591 67.7871 10.5813C67.7871 10.4035 67.8475 10.2542 67.9684 10.1333C68.0893 10.0124 68.2386 9.95199 68.4164 9.95199C68.6013 9.95199 68.7542 10.0124 68.8751 10.1333C69.0031 10.2542 69.0671 10.4035 69.0671 10.5813C69.0671 10.7591 69.0031 10.9084 68.8751 11.0293C68.7542 11.1502 68.6013 11.2107 68.4164 11.2107ZM67.8724 12.2133H68.9711V17.3333H67.8724V12.2133Z" fill="#28272C"/>
<path d="M70.4538 12.2133H71.4991V12.9493C71.7409 12.6435 72.036 12.4195 72.3844 12.2773C72.74 12.128 73.1097 12.0533 73.4938 12.0533C74.1764 12.0533 74.6849 12.2347 75.0191 12.5973C75.3533 12.96 75.5204 13.4471 75.5204 14.0587V17.3333H74.4431V14.1653C74.4431 13.3333 74.0449 12.9173 73.2484 12.9173C72.9071 12.9173 72.5871 12.9991 72.2884 13.1627C71.9969 13.3191 71.7444 13.5609 71.5311 13.888V17.3333H70.4538V12.2133Z" fill="#28272C"/>
<path d="M79.5269 19.7867C79.1785 19.7867 78.8371 19.7582 78.5029 19.7013C78.1758 19.6444 77.8985 19.5627 77.6709 19.456V18.5707C78.2043 18.8124 78.8229 18.9333 79.5269 18.9333C80.1883 18.9333 80.6683 18.7875 80.9669 18.496C81.2727 18.2115 81.4256 17.7778 81.4256 17.1947V16.6507C80.9563 17.2124 80.2665 17.4933 79.3563 17.4933C78.8371 17.4933 78.3714 17.3795 77.9589 17.152C77.5465 16.9244 77.2229 16.6044 76.9883 16.192C76.7536 15.7795 76.6363 15.3067 76.6363 14.7733C76.6363 14.2329 76.75 13.76 76.9776 13.3547C77.2122 12.9422 77.5323 12.6222 77.9376 12.3947C78.35 12.1671 78.8122 12.0533 79.3242 12.0533C79.8007 12.0533 80.2025 12.1244 80.5296 12.2667C80.8638 12.4018 81.1731 12.6293 81.4576 12.9493V12.2133H82.5029V17.0773C82.5029 17.952 82.2576 18.6204 81.7669 19.0827C81.2834 19.552 80.5367 19.7867 79.5269 19.7867ZM79.5696 16.64C80.0105 16.64 80.398 16.5227 80.7323 16.288C81.0736 16.0533 81.3047 15.7404 81.4256 15.3493V14.1973C81.2905 13.7991 81.0558 13.4862 80.7216 13.2587C80.3945 13.0311 80.0105 12.9173 79.5696 12.9173C79.2211 12.9173 78.9047 12.9955 78.6203 13.152C78.3429 13.3013 78.1225 13.5182 77.9589 13.8027C77.8025 14.0871 77.7243 14.4107 77.7243 14.7733C77.7243 15.1431 77.8025 15.4702 77.9589 15.7547C78.1225 16.032 78.3429 16.2489 78.6203 16.4053C78.9047 16.5618 79.2211 16.64 79.5696 16.64Z" fill="#28272C"/>
<path d="M14.54 30.14C13.868 30.14 13.2707 30 12.748 29.72C12.2253 29.44 11.8178 29.0449 11.5253 28.5347C11.2329 28.0182 11.0867 27.4209 11.0867 26.7427C11.0867 26.0644 11.2329 25.4671 11.5253 24.9507C11.8178 24.4342 12.2253 24.036 12.748 23.756C13.2707 23.476 13.868 23.336 14.54 23.336C15.436 23.336 16.1858 23.5631 16.7893 24.0173V24.932C16.248 24.4529 15.5262 24.2133 14.624 24.2133C14.12 24.2133 13.672 24.316 13.28 24.5213C12.8942 24.7267 12.5924 25.0222 12.3747 25.408C12.1569 25.7875 12.048 26.2324 12.048 26.7427C12.048 27.2529 12.1569 27.7009 12.3747 28.0867C12.5987 28.4724 12.9036 28.768 13.2893 28.9733C13.6813 29.1787 14.1262 29.2813 14.624 29.2813C15.0844 29.2813 15.4951 29.2222 15.856 29.104C16.2231 28.9795 16.5622 28.7835 16.8733 28.516V29.44C16.3133 29.9067 15.5356 30.14 14.54 30.14Z" fill="#28272C"/>
<path d="M20.024 30.14C19.52 30.14 19.0751 30.0467 18.6893 29.86C18.3098 29.6671 18.0111 29.3933 17.7933 29.0387C17.5818 28.6778 17.476 28.2547 17.476 27.7693C17.476 27.2902 17.5818 26.8702 17.7933 26.5093C18.0049 26.1484 18.3035 25.8715 18.6893 25.6787C19.0751 25.4795 19.52 25.38 20.024 25.38C20.528 25.38 20.9729 25.4795 21.3587 25.6787C21.7444 25.8715 22.0431 26.1484 22.2547 26.5093C22.4724 26.8702 22.5813 27.2902 22.5813 27.7693C22.5813 28.2547 22.4724 28.6778 22.2547 29.0387C22.0431 29.3933 21.7444 29.6671 21.3587 29.86C20.9729 30.0467 20.528 30.14 20.024 30.14ZM20.024 29.3933C20.5093 29.3933 20.8951 29.244 21.1813 28.9453C21.4675 28.6467 21.6107 28.2547 21.6107 27.7693C21.6107 27.2653 21.4675 26.8671 21.1813 26.5747C20.8951 26.2822 20.5093 26.136 20.024 26.136C19.5387 26.136 19.1529 26.2822 18.8667 26.5747C18.5804 26.8671 18.4373 27.2653 18.4373 27.7693C18.4373 28.2547 18.5804 28.6467 18.8667 28.9453C19.1529 29.244 19.5387 29.3933 20.024 29.3933Z" fill="#28272C"/>
<path d="M23.6054 25.52H24.5014V26.164C24.7129 25.9027 24.9525 25.7067 25.22 25.576C25.4876 25.4453 25.7645 25.38 26.0507 25.38C26.4116 25.38 26.6978 25.4422 26.9094 25.5667C27.1209 25.6849 27.2765 25.8684 27.376 26.1173C27.5751 25.8747 27.8178 25.6911 28.104 25.5667C28.3965 25.4422 28.6889 25.38 28.9814 25.38C29.5289 25.38 29.924 25.52 30.1667 25.8C30.4094 26.0738 30.5307 26.4813 30.5307 27.0227V30H29.616V27.144C29.616 26.7769 29.5476 26.5187 29.4107 26.3693C29.2738 26.2138 29.0405 26.136 28.7107 26.136C28.2378 26.136 27.852 26.3413 27.5534 26.752C27.5658 26.8453 27.572 26.9978 27.572 27.2093V30H26.6574V27.144C26.6574 26.7769 26.5951 26.5187 26.4707 26.3693C26.3463 26.2138 26.1223 26.136 25.7987 26.136C25.3258 26.136 24.9027 26.4035 24.5294 26.9387V30H23.6054V25.52Z" fill="#28272C"/>
<path d="M31.6991 25.52H32.6138V26.1827C33.0742 25.6475 33.6964 25.38 34.4804 25.38C34.9284 25.38 35.3298 25.4795 35.6844 25.6787C36.0453 25.8778 36.3253 26.1578 36.5245 26.5187C36.7298 26.8733 36.8324 27.2871 36.8324 27.76C36.8324 28.2267 36.7298 28.6404 36.5245 29.0013C36.3253 29.3622 36.0484 29.6422 35.6938 29.8413C35.3391 30.0404 34.9347 30.14 34.4804 30.14C34.1071 30.14 33.7587 30.0778 33.4351 29.9533C33.1116 29.8289 32.8471 29.6453 32.6418 29.4027V32.044H31.6991V25.52ZM34.2658 29.3933C34.5707 29.3933 34.8444 29.328 35.0871 29.1973C35.336 29.0604 35.5289 28.8675 35.6658 28.6187C35.8089 28.3698 35.8805 28.0835 35.8805 27.76C35.8805 27.4364 35.8089 27.1533 35.6658 26.9107C35.5289 26.6618 35.336 26.472 35.0871 26.3413C34.8444 26.2044 34.5707 26.136 34.2658 26.136C33.8862 26.136 33.5502 26.2355 33.2578 26.4347C32.9716 26.6338 32.7662 26.9075 32.6418 27.256V28.264C32.7476 28.6062 32.9498 28.88 33.2484 29.0853C33.5471 29.2907 33.8862 29.3933 34.2658 29.3933Z" fill="#28272C"/>
<path d="M39.2289 30.14C38.6876 30.14 38.252 30.0031 37.9223 29.7293C37.5987 29.4493 37.4369 29.0729 37.4369 28.6C37.4369 28.1022 37.5925 27.7195 37.9036 27.452C38.2209 27.1782 38.6689 27.0413 39.2476 27.0413C39.8636 27.0413 40.3863 27.1658 40.8156 27.4147V27.1813C40.8156 26.8267 40.7067 26.5653 40.4889 26.3973C40.2774 26.2231 39.9414 26.136 39.4809 26.136C39.2072 26.136 38.9396 26.164 38.6783 26.22C38.4232 26.2698 38.1929 26.3413 37.9876 26.4347V25.6693C38.1743 25.5822 38.4169 25.5138 38.7156 25.464C39.0143 25.408 39.3036 25.38 39.5836 25.38C40.324 25.38 40.8716 25.5449 41.2263 25.8747C41.5872 26.1982 41.7676 26.6493 41.7676 27.228V30H40.8809V29.496C40.688 29.7075 40.4578 29.8693 40.1903 29.9813C39.9289 30.0871 39.6085 30.14 39.2289 30.14ZM39.4623 29.4213C39.7609 29.4213 40.0316 29.3622 40.2743 29.244C40.5169 29.1258 40.6974 28.9609 40.8156 28.7493V28.1427C40.4112 27.8813 39.96 27.7507 39.4623 27.7507C39.1014 27.7507 38.8307 27.8222 38.6503 27.9653C38.476 28.1022 38.3889 28.3138 38.3889 28.6C38.3889 29.1475 38.7467 29.4213 39.4623 29.4213Z" fill="#28272C"/>
<path d="M42.9374 25.52H43.8521V26.164C44.0636 25.8964 44.3218 25.7004 44.6267 25.576C44.9378 25.4453 45.2614 25.38 45.5974 25.38C46.1947 25.38 46.6396 25.5387 46.9321 25.856C47.2245 26.1733 47.3707 26.5995 47.3707 27.1347V30H46.4281V27.228C46.4281 26.5 46.0796 26.136 45.3827 26.136C45.0841 26.136 44.8041 26.2075 44.5427 26.3507C44.2876 26.4875 44.0667 26.6991 43.8801 26.9853V30H42.9374V25.52Z" fill="#28272C"/>
<path d="M49.0665 31.848C48.7305 31.848 48.4505 31.8138 48.2265 31.7453V31.008C48.3883 31.0702 48.5874 31.1013 48.8238 31.1013C49.0416 31.1013 49.2127 31.0453 49.3372 30.9333C49.4616 30.8275 49.5736 30.6533 49.6731 30.4107L49.8878 29.888L47.9278 25.52H48.8985L50.3918 28.964L51.7825 25.52H52.7532L50.7371 30.504C50.5505 30.9707 50.3265 31.3098 50.0651 31.5213C49.81 31.7391 49.4771 31.848 49.0665 31.848Z" fill="#28272C"/>
</svg>
