<svg width="560" height="556" viewBox="0 0 560 556" fill="none" xmlns="http://www.w3.org/2000/svg">
<rect width="4" height="4" fill="#FFFFFD"/>
<rect x="92.6665" width="4" height="4" fill="#FFFFFD"/>
<rect x="189.333" y="4" width="4" height="4" transform="rotate(-180 189.333 4)" fill="#FFFFFD"/>
<rect x="282" y="4" width="4" height="4" transform="rotate(-180 282 4)" fill="#FFFFFD"/>
<rect x="374.667" y="4" width="4" height="4" transform="rotate(-180 374.667 4)" fill="#FFFFFD"/>
<rect x="467.333" y="4" width="4" height="4" transform="rotate(-180 467.333 4)" fill="#FFFFFD"/>
<rect x="560" y="4" width="4" height="4" transform="rotate(-180 560 4)" fill="#FFFFFD"/>
<rect y="92" width="4" height="4" fill="#FFFFFD"/>
<rect x="92.6665" y="92" width="4" height="4" fill="#FFFFFD"/>
<rect x="189.333" y="96" width="4" height="4" transform="rotate(-180 189.333 96)" fill="#FFFFFD"/>
<rect x="282" y="96" width="4" height="4" transform="rotate(-180 282 96)" fill="#FFFFFD"/>
<rect x="374.667" y="96" width="4" height="4" transform="rotate(-180 374.667 96)" fill="#FFFFFD"/>
<rect x="467.333" y="96" width="4" height="4" transform="rotate(-180 467.333 96)" fill="#FFFFFD"/>
<rect x="560" y="96" width="4" height="4" transform="rotate(-180 560 96)" fill="#FFFFFD"/>
<rect y="184" width="4" height="4" fill="#FFFFFD"/>
<rect x="92.6665" y="184" width="4" height="4" fill="#FFFFFD"/>
<rect x="189.333" y="188" width="4" height="4" transform="rotate(-180 189.333 188)" fill="#FFFFFD"/>
<rect x="282" y="188" width="4" height="4" transform="rotate(-180 282 188)" fill="#FFFFFD"/>
<rect x="374.667" y="188" width="4" height="4" transform="rotate(-180 374.667 188)" fill="#FFFFFD"/>
<rect x="467.333" y="188" width="4" height="4" transform="rotate(-180 467.333 188)" fill="#FFFFFD"/>
<rect x="560" y="188" width="4" height="4" transform="rotate(-180 560 188)" fill="#FFFFFD"/>
<rect y="276" width="4" height="4" fill="#FFFFFD"/>
<rect x="92.6665" y="276" width="4" height="4" fill="#FFFFFD"/>
<rect x="189.333" y="280" width="4" height="4" transform="rotate(-180 189.333 280)" fill="#FFFFFD"/>
<rect x="282" y="280" width="4" height="4" transform="rotate(-180 282 280)" fill="#FFFFFD"/>
<rect x="374.667" y="280" width="4" height="4" transform="rotate(-180 374.667 280)" fill="#FFFFFD"/>
<rect x="467.333" y="280" width="4" height="4" transform="rotate(-180 467.333 280)" fill="#FFFFFD"/>
<rect x="560" y="280" width="4" height="4" transform="rotate(-180 560 280)" fill="#FFFFFD"/>
<rect y="368" width="4" height="4" fill="#FFFFFD"/>
<rect x="92.6665" y="368" width="4" height="4" fill="#FFFFFD"/>
<rect x="189.333" y="372" width="4" height="4" transform="rotate(-180 189.333 372)" fill="#FFFFFD"/>
<rect x="282" y="372" width="4" height="4" transform="rotate(-180 282 372)" fill="#FFFFFD"/>
<rect x="374.667" y="372" width="4" height="4" transform="rotate(-180 374.667 372)" fill="#FFFFFD"/>
<rect x="467.333" y="372" width="4" height="4" transform="rotate(-180 467.333 372)" fill="#FFFFFD"/>
<rect x="560" y="372" width="4" height="4" transform="rotate(-180 560 372)" fill="#FFFFFD"/>
<rect y="460" width="4" height="4" fill="#FFFFFD"/>
<rect x="92.6665" y="460" width="4" height="4" fill="#FFFFFD"/>
<rect x="189.333" y="464" width="4" height="4" transform="rotate(-180 189.333 464)" fill="#FFFFFD"/>
<rect x="282" y="464" width="4" height="4" transform="rotate(-180 282 464)" fill="#FFFFFD"/>
<rect x="374.667" y="464" width="4" height="4" transform="rotate(-180 374.667 464)" fill="#FFFFFD"/>
<rect x="467.333" y="464" width="4" height="4" transform="rotate(-180 467.333 464)" fill="#FFFFFD"/>
<rect x="560" y="464" width="4" height="4" transform="rotate(-180 560 464)" fill="#FFFFFD"/>
<rect y="552" width="4" height="4" fill="#FFFFFD"/>
<rect x="92.6665" y="552" width="4" height="4" fill="#FFFFFD"/>
<rect x="189.333" y="556" width="4" height="4" transform="rotate(-180 189.333 556)" fill="#FFFFFD"/>
<rect x="282" y="556" width="4" height="4" transform="rotate(-180 282 556)" fill="#FFFFFD"/>
<rect x="374.667" y="556" width="4" height="4" transform="rotate(-180 374.667 556)" fill="#FFFFFD"/>
<rect x="467.333" y="556" width="4" height="4" transform="rotate(-180 467.333 556)" fill="#FFFFFD"/>
<rect x="560" y="556" width="4" height="4" transform="rotate(-180 560 556)" fill="#FFFFFD"/>
</svg>
