<svg width="744" height="61" viewBox="0 0 744 61" fill="none" xmlns="http://www.w3.org/2000/svg">
<path d="M12.834 11.9H0.62V2.662H36.084V11.9H23.808V46H12.834V11.9ZM58.9872 46.93C54.7299 46.93 51.2165 45.628 48.4472 43.024V46H37.9072V0.181999H48.8192V18.658C50.0179 17.6247 51.5059 16.8187 53.2832 16.24C55.1019 15.62 57.0032 15.31 58.9872 15.31C62.1285 15.31 64.8772 15.9713 67.2332 17.294C69.6305 18.6167 71.4905 20.4973 72.8132 22.936C74.1359 25.3333 74.7972 28.082 74.7972 31.182C74.7972 34.3233 74.1359 37.0927 72.8132 39.49C71.4905 41.846 69.6305 43.6853 67.2332 45.008C64.8359 46.2893 62.0872 46.93 58.9872 46.93ZM56.1352 38.498C58.3672 38.498 60.1652 37.8573 61.5292 36.576C62.8932 35.2533 63.5752 33.4553 63.5752 31.182C63.5752 28.9087 62.8932 27.1107 61.5292 25.788C60.1652 24.4653 58.3672 23.804 56.1352 23.804C54.4819 23.804 52.9939 24.238 51.6712 25.106C50.3485 25.9327 49.3979 27.0693 48.8192 28.516V33.786C49.3979 35.2327 50.3485 36.39 51.6712 37.258C52.9939 38.0847 54.4819 38.498 56.1352 38.498ZM84.9676 12.272C83.3143 12.272 81.9296 11.7347 80.8136 10.66C79.6976 9.58533 79.1396 8.22133 79.1396 6.568C79.1396 4.956 79.6976 3.61267 80.8136 2.538C81.9296 1.422 83.3143 0.863997 84.9676 0.863997C86.5796 0.863997 87.9436 1.422 89.0596 2.538C90.2169 3.61267 90.7956 4.956 90.7956 6.568C90.7956 8.18 90.2169 9.544 89.0596 10.66C87.9436 11.7347 86.5796 12.272 84.9676 12.272ZM79.5116 16.24H90.4236V46H79.5116V16.24ZM96.3955 0.181999H107.307V46H96.3955V0.181999ZM118.692 12.272C117.039 12.272 115.654 11.7347 114.538 10.66C113.422 9.58533 112.864 8.22133 112.864 6.568C112.864 4.956 113.422 3.61267 114.538 2.538C115.654 1.422 117.039 0.863997 118.692 0.863997C120.304 0.863997 121.668 1.422 122.784 2.538C123.942 3.61267 124.52 4.956 124.52 6.568C124.52 8.18 123.942 9.544 122.784 10.66C121.668 11.7347 120.304 12.272 118.692 12.272ZM113.236 16.24H124.148V46H113.236V16.24ZM142.954 46.93C140.557 46.93 138.056 46.682 135.452 46.186C132.848 45.7313 130.781 45.07 129.252 44.202V36.204C130.947 37.196 132.972 38.0227 135.328 38.684C137.725 39.304 139.916 39.614 141.9 39.614C143.347 39.614 144.401 39.5107 145.062 39.304C145.723 39.0973 146.054 38.684 146.054 38.064C146.054 37.568 145.827 37.1753 145.372 36.886C144.959 36.5553 144.173 36.2247 143.016 35.894C141.9 35.522 140.598 35.1293 139.11 34.716C136.589 33.972 134.605 33.2073 133.158 32.422C131.711 31.6367 130.637 30.6447 129.934 29.446C129.231 28.2473 128.88 26.7387 128.88 24.92C128.88 21.696 130.141 19.2987 132.662 17.728C135.225 16.116 138.717 15.31 143.14 15.31C145.289 15.31 147.542 15.5373 149.898 15.992C152.295 16.4467 154.093 17.046 155.292 17.79V25.664C154.052 24.8373 152.399 24.1553 150.332 23.618C148.307 23.0807 146.405 22.812 144.628 22.812C143.223 22.812 142.127 22.9567 141.342 23.246C140.557 23.494 140.164 23.9487 140.164 24.61C140.164 25.23 140.557 25.7053 141.342 26.036C142.127 26.3667 143.533 26.78 145.558 27.276C146.881 27.6067 147.439 27.7513 147.232 27.71C149.877 28.4127 151.923 29.198 153.37 30.066C154.817 30.934 155.829 31.9673 156.408 33.166C157.028 34.3233 157.338 35.8113 157.338 37.63C157.338 40.482 156.098 42.7553 153.618 44.45C151.179 46.1033 147.625 46.93 142.954 46.93ZM167.493 12.272C165.84 12.272 164.455 11.7347 163.339 10.66C162.223 9.58533 161.665 8.22133 161.665 6.568C161.665 4.956 162.223 3.61267 163.339 2.538C164.455 1.422 165.84 0.863997 167.493 0.863997C169.105 0.863997 170.469 1.422 171.585 2.538C172.742 3.61267 173.321 4.956 173.321 6.568C173.321 8.18 172.742 9.544 171.585 10.66C170.469 11.7347 169.105 12.272 167.493 12.272ZM162.037 16.24H172.949V46H162.037V16.24ZM199.991 2.662H210.965V19.402H227.953V2.662H238.927V46H227.953V28.516H210.965V46H199.991V2.662ZM261.605 46.93C257.926 46.93 254.702 46.2687 251.933 44.946C249.164 43.582 247.014 41.722 245.485 39.366C243.997 36.9687 243.253 34.22 243.253 31.12C243.253 28.02 243.997 25.292 245.485 22.936C247.014 20.5387 249.164 18.6787 251.933 17.356C254.702 15.992 257.926 15.31 261.605 15.31C265.284 15.31 268.508 15.992 271.277 17.356C274.046 18.6787 276.175 20.5387 277.663 22.936C279.192 25.292 279.957 28.02 279.957 31.12C279.957 34.22 279.192 36.9687 277.663 39.366C276.175 41.722 274.046 43.582 271.277 44.946C268.508 46.2687 265.284 46.93 261.605 46.93ZM261.605 38.436C263.796 38.436 265.532 37.7953 266.813 36.514C268.136 35.1913 268.797 33.3933 268.797 31.12C268.797 28.8467 268.136 27.0693 266.813 25.788C265.532 24.4653 263.796 23.804 261.605 23.804C259.414 23.804 257.658 24.4653 256.335 25.788C255.054 27.0693 254.413 28.8467 254.413 31.12C254.413 33.3933 255.054 35.1913 256.335 36.514C257.658 37.7953 259.414 38.436 261.605 38.436ZM284.272 0.181999H295.184V46H284.272V0.181999ZM315.311 46.93C312.211 46.93 309.463 46.2893 307.065 45.008C304.668 43.6853 302.808 41.846 301.485 39.49C300.163 37.0927 299.501 34.3233 299.501 31.182C299.501 28.082 300.163 25.3333 301.485 22.936C302.808 20.4973 304.647 18.6167 307.003 17.294C309.401 15.9713 312.17 15.31 315.311 15.31C317.378 15.31 319.279 15.5993 321.015 16.178C322.751 16.7567 324.239 17.5833 325.479 18.658V0.181999H336.391V46H325.851V43.024C323.082 45.628 319.569 46.93 315.311 46.93ZM318.163 38.498C319.817 38.498 321.305 38.0847 322.627 37.258C323.95 36.39 324.901 35.2327 325.479 33.786V28.516C324.901 27.0693 323.95 25.9327 322.627 25.106C321.305 24.238 319.817 23.804 318.163 23.804C315.931 23.804 314.133 24.4653 312.769 25.788C311.405 27.1107 310.723 28.9087 310.723 31.182C310.723 33.4553 311.405 35.2533 312.769 36.576C314.133 37.8573 315.931 38.498 318.163 38.498ZM347.802 12.272C346.148 12.272 344.764 11.7347 343.648 10.66C342.532 9.58533 341.974 8.22133 341.974 6.568C341.974 4.956 342.532 3.61267 343.648 2.538C344.764 1.422 346.148 0.863997 347.802 0.863997C349.414 0.863997 350.778 1.422 351.894 2.538C353.051 3.61267 353.63 4.956 353.63 6.568C353.63 8.18 353.051 9.544 351.894 10.66C350.778 11.7347 349.414 12.272 347.802 12.272ZM342.346 16.24H353.258V46H342.346V16.24ZM359.229 16.24H369.769V19.526C371.051 18.1207 372.601 17.0667 374.419 16.364C376.238 15.6613 378.139 15.31 380.123 15.31C384.298 15.31 387.377 16.4053 389.361 18.596C391.387 20.7453 392.399 23.68 392.399 27.4V46H381.487V28.826C381.487 25.478 379.958 23.804 376.899 23.804C375.494 23.804 374.213 24.1347 373.055 24.796C371.898 25.416 370.927 26.3873 370.141 27.71V46H359.229V16.24ZM413.859 60.26C411.875 60.26 409.87 60.074 407.845 59.702C405.861 59.33 404.145 58.834 402.699 58.214V50.65C405.964 52.0553 409.684 52.758 413.859 52.758C416.876 52.758 419.046 52.138 420.369 50.898C421.733 49.658 422.415 47.8393 422.415 45.442V43.644C421.216 44.6773 419.728 45.4833 417.951 46.062C416.215 46.6407 414.355 46.93 412.371 46.93C409.229 46.93 406.46 46.2687 404.063 44.946C401.665 43.6233 399.785 41.7633 398.421 39.366C397.098 36.9687 396.437 34.22 396.437 31.12C396.437 27.9787 397.098 25.2093 398.421 22.812C399.743 20.4147 401.603 18.5753 404.001 17.294C406.398 15.9713 409.147 15.31 412.247 15.31C416.504 15.31 420.017 16.612 422.787 19.216V16.24H433.327V43.954C433.327 49.1207 431.735 53.13 428.553 55.982C425.411 58.834 420.513 60.26 413.859 60.26ZM415.099 38.498C416.793 38.498 418.302 38.064 419.625 37.196C420.947 36.328 421.877 35.1707 422.415 33.724V28.516C421.836 27.0693 420.885 25.9327 419.563 25.106C418.24 24.238 416.752 23.804 415.099 23.804C412.867 23.804 411.069 24.4653 409.705 25.788C408.341 27.0693 407.659 28.826 407.659 31.058C407.659 33.3313 408.341 35.15 409.705 36.514C411.069 37.8367 412.867 38.498 415.099 38.498Z" fill="#5765FD"/>
<path d="M482.361 46.93C477.649 46.93 473.495 46.0207 469.899 44.202C466.345 42.3833 463.596 39.7793 461.653 36.39C459.711 32.9593 458.739 28.95 458.739 24.362C458.739 19.774 459.711 15.7853 461.653 12.396C463.596 8.96533 466.345 6.34067 469.899 4.522C473.495 2.662 477.649 1.732 482.361 1.732C485.461 1.732 488.231 2.042 490.669 2.662C493.108 3.282 495.361 4.25333 497.427 5.576V15.992C495.609 14.5453 493.542 13.4913 491.227 12.83C488.954 12.1687 486.329 11.838 483.353 11.838C479.096 11.838 475.81 12.954 473.495 15.186C471.181 17.3767 470.023 20.4353 470.023 24.362C470.023 28.2887 471.181 31.368 473.495 33.6C475.851 35.832 479.137 36.948 483.353 36.948C486.329 36.948 488.995 36.5967 491.351 35.894C493.707 35.1913 495.898 34.0753 497.923 32.546V42.9C493.997 45.5867 488.809 46.93 482.361 46.93ZM517.779 46.93C514.1 46.93 510.876 46.2687 508.107 44.946C505.338 43.582 503.188 41.722 501.659 39.366C500.171 36.9687 499.427 34.22 499.427 31.12C499.427 28.02 500.171 25.292 501.659 22.936C503.188 20.5387 505.338 18.6787 508.107 17.356C510.876 15.992 514.1 15.31 517.779 15.31C521.458 15.31 524.682 15.992 527.451 17.356C530.22 18.6787 532.349 20.5387 533.837 22.936C535.366 25.292 536.131 28.02 536.131 31.12C536.131 34.22 535.366 36.9687 533.837 39.366C532.349 41.722 530.22 43.582 527.451 44.946C524.682 46.2687 521.458 46.93 517.779 46.93ZM517.779 38.436C519.97 38.436 521.706 37.7953 522.987 36.514C524.31 35.1913 524.971 33.3933 524.971 31.12C524.971 28.8467 524.31 27.0693 522.987 25.788C521.706 24.4653 519.97 23.804 517.779 23.804C515.588 23.804 513.832 24.4653 512.509 25.788C511.228 27.0693 510.587 28.8467 510.587 31.12C510.587 33.3933 511.228 35.1913 512.509 36.514C513.832 37.7953 515.588 38.436 517.779 38.436ZM540.446 16.24H550.552V19.464C551.792 18.1413 553.218 17.1287 554.83 16.426C556.442 15.682 558.158 15.31 559.976 15.31C562.208 15.31 563.986 15.6407 565.308 16.302C566.672 16.9633 567.768 17.9553 568.594 19.278C569.834 18.038 571.343 17.0667 573.12 16.364C574.898 15.6613 576.696 15.31 578.514 15.31C582.441 15.31 585.231 16.3227 586.884 18.348C588.538 20.332 589.364 23.2047 589.364 26.966V46H578.948V28.516C578.948 26.8627 578.638 25.664 578.018 24.92C577.398 24.176 576.365 23.804 574.918 23.804C573.058 23.804 571.55 24.4653 570.392 25.788C570.434 26.4907 570.454 27.5653 570.454 29.012V46H560.038V28.082C560.038 26.5527 559.77 25.4573 559.232 24.796C558.695 24.1347 557.744 23.804 556.38 23.804C554.272 23.804 552.454 24.982 550.924 27.338V46H540.446V16.24ZM594.636 16.24H605.176V19.216C607.945 16.612 611.458 15.31 615.716 15.31C618.816 15.31 621.564 15.9713 623.962 17.294C626.359 18.5753 628.219 20.4147 629.542 22.812C630.864 25.168 631.526 27.9167 631.526 31.058C631.526 34.158 630.864 36.9273 629.542 39.366C628.219 41.7633 626.359 43.6233 623.962 44.946C621.606 46.2687 618.857 46.93 615.716 46.93C613.732 46.93 611.83 46.62 610.012 46C608.234 45.4213 606.746 44.6153 605.548 43.582V59.578H594.636V16.24ZM612.864 38.436C615.096 38.436 616.894 37.7747 618.258 36.452C619.622 35.1293 620.304 33.3313 620.304 31.058C620.304 28.7847 619.622 27.0073 618.258 25.726C616.894 24.4033 615.096 23.742 612.864 23.742C611.21 23.742 609.722 24.176 608.4 25.044C607.077 25.8707 606.126 27.0073 605.548 28.454V33.724C606.126 35.1707 607.077 36.328 608.4 37.196C609.722 38.0227 611.21 38.436 612.864 38.436ZM645.516 46.93C641.796 46.93 638.779 46.0413 636.464 44.264C634.191 42.4453 633.054 39.924 633.054 36.7C633.054 33.352 634.149 30.7893 636.34 29.012C638.572 27.1933 641.755 26.284 645.888 26.284C647.5 26.284 649.112 26.47 650.724 26.842C652.336 27.1727 653.721 27.6273 654.878 28.206V27.586C654.878 24.4033 652.274 22.812 647.066 22.812C643.429 22.812 640.101 23.5147 637.084 24.92V17.418C638.407 16.798 640.143 16.302 642.292 15.93C644.441 15.5167 646.673 15.31 648.988 15.31C654.527 15.31 658.701 16.426 661.512 18.658C664.364 20.8487 665.79 23.928 665.79 27.896V46H655.56V43.458C654.444 44.5327 653.039 45.38 651.344 46C649.649 46.62 647.707 46.93 645.516 46.93ZM648.74 40.234C650.021 40.234 651.22 39.986 652.336 39.49C653.452 38.9527 654.299 38.2707 654.878 37.444V34.84C653.101 33.6413 651.075 33.042 648.802 33.042C647.355 33.042 646.239 33.352 645.454 33.972C644.669 34.592 644.276 35.5013 644.276 36.7C644.276 37.816 644.648 38.684 645.392 39.304C646.177 39.924 647.293 40.234 648.74 40.234ZM671.046 16.24H681.586V19.526C682.867 18.1207 684.417 17.0667 686.236 16.364C688.055 15.6613 689.956 15.31 691.94 15.31C696.115 15.31 699.194 16.4053 701.178 18.596C703.203 20.7453 704.216 23.68 704.216 27.4V46H693.304V28.826C693.304 25.478 691.775 23.804 688.716 23.804C687.311 23.804 686.029 24.1347 684.872 24.796C683.715 25.416 682.743 26.3873 681.958 27.71V46H671.046V16.24ZM717.095 58.276C715.772 58.276 714.388 58.1727 712.941 57.966C711.494 57.8007 710.42 57.5527 709.717 57.222V49.1C710.916 49.596 712.28 49.844 713.809 49.844C715.173 49.844 716.227 49.534 716.971 48.914C717.756 48.3353 718.376 47.4053 718.831 46.124L719.575 44.14L706.679 16.24H717.591L725.341 35.584L732.657 16.24H743.569L731.293 47.364C729.846 51.084 727.986 53.8327 725.713 55.61C723.481 57.3873 720.608 58.276 717.095 58.276Z" fill="#28272C"/>
</svg>
