<svg width="610" height="48" viewBox="0 0 610 48" fill="none" xmlns="http://www.w3.org/2000/svg">
<path opacity="0.7" d="M4.572 2.606H0.54V1.418H10.008V2.606H5.976V14H4.572V2.606ZM11.8069 1.418H13.2109V6.998H20.3029V1.418H21.7069V14H20.3029V8.186H13.2109V14H11.8069V1.418ZM30.4806 14.27C29.2086 14.27 28.0686 14 27.0606 13.46C26.0646 12.92 25.2846 12.158 24.7206 11.174C24.1566 10.178 23.8746 9.026 23.8746 7.718C23.8746 6.41 24.1566 5.264 24.7206 4.28C25.2846 3.284 26.0646 2.516 27.0606 1.976C28.0686 1.424 29.2086 1.148 30.4806 1.148C32.2206 1.148 33.6606 1.604 34.8006 2.516V3.884C33.7206 2.912 32.3166 2.426 30.5886 2.426C29.5686 2.426 28.6566 2.642 27.8526 3.074C27.0486 3.506 26.4186 4.124 25.9626 4.928C25.5066 5.72 25.2786 6.65 25.2786 7.718C25.2786 8.786 25.5066 9.722 25.9626 10.526C26.4306 11.318 27.0666 11.93 27.8706 12.362C28.6746 12.794 29.5806 13.01 30.5886 13.01C31.4886 13.01 32.2926 12.89 33.0006 12.65C33.7086 12.41 34.3626 12.014 34.9626 11.462V12.848C33.8946 13.796 32.4006 14.27 30.4806 14.27ZM43.9573 1.418H45.3613V12.812H52.0573V14H43.9573V1.418ZM55.5486 2.606H51.5166V1.418H60.9846V2.606H56.9526V14H55.5486V2.606ZM62.7834 1.418H66.6714C68.0154 1.418 69.1794 1.67 70.1634 2.174C71.1594 2.678 71.9214 3.398 72.4494 4.334C72.9774 5.27 73.2414 6.374 73.2414 7.646C73.2414 9.746 72.6414 11.33 71.4414 12.398C70.2414 13.466 68.5554 14 66.3834 14H62.7834V1.418ZM66.2934 12.812C68.1894 12.812 69.5874 12.38 70.4874 11.516C71.3874 10.64 71.8374 9.35 71.8374 7.646C71.8374 6.062 71.3994 4.826 70.5234 3.938C69.6474 3.05 68.3574 2.606 66.6534 2.606H64.1874V12.812H66.2934ZM82.2424 5.36H83.5924V7.052C84.2884 5.924 85.5904 5.36 87.4984 5.36V6.476C85.4104 6.476 84.1204 7.166 83.6284 8.546V14H82.2424V5.36ZM93.3903 14.27C91.8183 14.27 90.5883 13.868 89.7003 13.064C88.8243 12.26 88.3863 11.138 88.3863 9.698C88.3863 8.282 88.7823 7.16 89.5743 6.332C90.3663 5.504 91.4943 5.09 92.9583 5.09C93.9423 5.09 94.7763 5.282 95.4603 5.666C96.1443 6.038 96.6603 6.554 97.0083 7.214C97.3563 7.874 97.5303 8.624 97.5303 9.464V10.22H89.6823C89.7303 11.204 90.0903 11.942 90.7623 12.434C91.4463 12.926 92.3703 13.172 93.5343 13.172C94.0983 13.172 94.6503 13.124 95.1903 13.028C95.7423 12.92 96.2343 12.776 96.6663 12.596V13.766C96.3063 13.91 95.8143 14.03 95.1903 14.126C94.5783 14.222 93.9783 14.27 93.3903 14.27ZM96.2343 9.23C96.2103 8.294 95.9223 7.556 95.3703 7.016C94.8183 6.476 94.0083 6.206 92.9403 6.206C91.8963 6.206 91.0983 6.488 90.5463 7.052C89.9943 7.604 89.7063 8.33 89.6823 9.23H96.2343ZM99.6975 5.36H101.048V6.854C101.9 5.678 103.16 5.09 104.828 5.09C105.68 5.09 106.448 5.282 107.132 5.666C107.816 6.05 108.356 6.59 108.752 7.286C109.148 7.982 109.346 8.786 109.346 9.698C109.346 10.598 109.148 11.396 108.752 12.092C108.368 12.788 107.828 13.328 107.132 13.712C106.448 14.084 105.68 14.27 104.828 14.27C104.048 14.27 103.322 14.126 102.65 13.838C101.978 13.538 101.456 13.106 101.083 12.542V17.942H99.6975V5.36ZM104.54 13.172C105.188 13.172 105.77 13.028 106.286 12.74C106.814 12.452 107.222 12.05 107.51 11.534C107.81 11.006 107.96 10.394 107.96 9.698C107.96 9.014 107.81 8.408 107.51 7.88C107.222 7.34 106.814 6.926 106.286 6.638C105.77 6.35 105.188 6.206 104.54 6.206C103.724 6.206 103.004 6.422 102.38 6.854C101.768 7.274 101.336 7.856 101.083 8.6V10.742C101.312 11.474 101.738 12.062 102.362 12.506C102.998 12.95 103.724 13.172 104.54 13.172ZM111.51 5.36H112.86V7.052C113.556 5.924 114.858 5.36 116.766 5.36V6.476C114.678 6.476 113.388 7.166 112.896 8.546V14H111.51V5.36ZM122.658 14.27C121.086 14.27 119.856 13.868 118.968 13.064C118.092 12.26 117.654 11.138 117.654 9.698C117.654 8.282 118.05 7.16 118.842 6.332C119.634 5.504 120.762 5.09 122.226 5.09C123.21 5.09 124.044 5.282 124.728 5.666C125.412 6.038 125.928 6.554 126.276 7.214C126.624 7.874 126.798 8.624 126.798 9.464V10.22H118.95C118.998 11.204 119.358 11.942 120.03 12.434C120.714 12.926 121.638 13.172 122.802 13.172C123.366 13.172 123.918 13.124 124.458 13.028C125.01 12.92 125.502 12.776 125.934 12.596V13.766C125.574 13.91 125.082 14.03 124.458 14.126C123.846 14.222 123.246 14.27 122.658 14.27ZM125.502 9.23C125.478 8.294 125.19 7.556 124.638 7.016C124.086 6.476 123.276 6.206 122.208 6.206C121.164 6.206 120.366 6.488 119.814 7.052C119.262 7.604 118.974 8.33 118.95 9.23H125.502ZM131.971 14.27C131.407 14.27 130.801 14.186 130.153 14.018C129.505 13.862 129.001 13.664 128.641 13.424V12.254C129.097 12.53 129.619 12.752 130.207 12.92C130.807 13.088 131.383 13.172 131.935 13.172C132.679 13.172 133.213 13.07 133.537 12.866C133.873 12.65 134.041 12.332 134.041 11.912C134.041 11.588 133.969 11.336 133.825 11.156C133.681 10.964 133.441 10.796 133.105 10.652C132.769 10.508 132.247 10.34 131.539 10.148C130.843 9.956 130.285 9.758 129.865 9.554C129.457 9.338 129.145 9.068 128.929 8.744C128.713 8.42 128.605 8.006 128.605 7.502C128.605 6.722 128.917 6.128 129.541 5.72C130.177 5.3 131.017 5.09 132.061 5.09C132.625 5.09 133.153 5.144 133.645 5.252C134.149 5.348 134.569 5.486 134.905 5.666V6.836C134.557 6.644 134.137 6.494 133.645 6.386C133.153 6.266 132.643 6.206 132.115 6.206C131.419 6.206 130.891 6.308 130.531 6.512C130.171 6.716 129.991 7.046 129.991 7.502C129.991 7.814 130.051 8.054 130.171 8.222C130.303 8.39 130.537 8.546 130.873 8.69C131.221 8.822 131.773 8.99 132.529 9.194C133.609 9.494 134.359 9.848 134.779 10.256C135.211 10.652 135.427 11.204 135.427 11.912C135.427 12.644 135.139 13.22 134.563 13.64C133.999 14.06 133.135 14.27 131.971 14.27ZM142.222 14.27C140.65 14.27 139.42 13.868 138.532 13.064C137.656 12.26 137.218 11.138 137.218 9.698C137.218 8.282 137.614 7.16 138.406 6.332C139.198 5.504 140.326 5.09 141.79 5.09C142.774 5.09 143.608 5.282 144.292 5.666C144.976 6.038 145.492 6.554 145.84 7.214C146.188 7.874 146.362 8.624 146.362 9.464V10.22H138.514C138.562 11.204 138.922 11.942 139.594 12.434C140.278 12.926 141.202 13.172 142.366 13.172C142.93 13.172 143.482 13.124 144.022 13.028C144.574 12.92 145.066 12.776 145.498 12.596V13.766C145.138 13.91 144.646 14.03 144.022 14.126C143.41 14.222 142.81 14.27 142.222 14.27ZM145.066 9.23C145.042 8.294 144.754 7.556 144.202 7.016C143.65 6.476 142.84 6.206 141.772 6.206C140.728 6.206 139.93 6.488 139.378 7.052C138.826 7.604 138.538 8.33 138.514 9.23H145.066ZM148.53 5.36H149.88V6.656C150.3 6.116 150.81 5.72 151.41 5.468C152.022 5.216 152.67 5.09 153.354 5.09C154.494 5.09 155.34 5.39 155.892 5.99C156.456 6.59 156.738 7.394 156.738 8.402V14H155.352V8.528C155.352 7.784 155.172 7.214 154.812 6.818C154.452 6.41 153.876 6.206 153.084 6.206C151.752 6.206 150.696 6.806 149.916 8.006V14H148.53V5.36ZM162.368 14.27C161.552 14.27 160.916 14.03 160.46 13.55C160.016 13.07 159.794 12.386 159.794 11.498V6.44H158.444V5.36H159.794V2.768H161.18V5.36H163.358V6.44H161.18V11.534C161.18 12.134 161.3 12.56 161.54 12.812C161.78 13.052 162.218 13.172 162.854 13.172C163.166 13.172 163.496 13.1 163.844 12.956V14.09C163.448 14.21 162.956 14.27 162.368 14.27ZM168.393 14.27C167.829 14.27 167.223 14.186 166.575 14.018C165.927 13.862 165.423 13.664 165.063 13.424V12.254C165.519 12.53 166.041 12.752 166.629 12.92C167.229 13.088 167.805 13.172 168.357 13.172C169.101 13.172 169.635 13.07 169.959 12.866C170.295 12.65 170.463 12.332 170.463 11.912C170.463 11.588 170.391 11.336 170.247 11.156C170.103 10.964 169.863 10.796 169.527 10.652C169.191 10.508 168.669 10.34 167.961 10.148C167.265 9.956 166.707 9.758 166.287 9.554C165.879 9.338 165.567 9.068 165.351 8.744C165.135 8.42 165.027 8.006 165.027 7.502C165.027 6.722 165.339 6.128 165.963 5.72C166.599 5.3 167.439 5.09 168.483 5.09C169.047 5.09 169.575 5.144 170.067 5.252C170.571 5.348 170.991 5.486 171.327 5.666V6.836C170.979 6.644 170.559 6.494 170.067 6.386C169.575 6.266 169.065 6.206 168.537 6.206C167.841 6.206 167.313 6.308 166.953 6.512C166.593 6.716 166.413 7.046 166.413 7.502C166.413 7.814 166.473 8.054 166.593 8.222C166.725 8.39 166.959 8.546 167.295 8.69C167.643 8.822 168.195 8.99 168.951 9.194C170.031 9.494 170.781 9.848 171.201 10.256C171.633 10.652 171.849 11.204 171.849 11.912C171.849 12.644 171.561 13.22 170.985 13.64C170.421 14.06 169.557 14.27 168.393 14.27ZM183.862 14.27C182.818 14.27 181.99 14.012 181.378 13.496C180.778 12.968 180.478 12.248 180.478 11.336C180.478 10.388 180.772 9.662 181.36 9.158C181.948 8.642 182.8 8.384 183.916 8.384C185.164 8.384 186.238 8.642 187.138 9.158V8.51C187.138 7.73 186.916 7.154 186.472 6.782C186.028 6.398 185.326 6.206 184.366 6.206C183.346 6.206 182.404 6.398 181.54 6.782V5.612C181.9 5.456 182.356 5.33 182.908 5.234C183.46 5.138 183.988 5.09 184.492 5.09C185.86 5.09 186.874 5.402 187.534 6.026C188.194 6.638 188.524 7.49 188.524 8.582V14H187.228V12.884C186.472 13.808 185.35 14.27 183.862 14.27ZM184.204 13.136C184.852 13.136 185.434 13.01 185.95 12.758C186.478 12.494 186.874 12.128 187.138 11.66V10.274C186.67 9.998 186.202 9.8 185.734 9.68C185.278 9.548 184.762 9.482 184.186 9.482C183.37 9.482 182.776 9.638 182.404 9.95C182.044 10.25 181.864 10.712 181.864 11.336C181.864 12.536 182.644 13.136 184.204 13.136ZM190.946 5.36H192.296V6.656C192.716 6.116 193.226 5.72 193.826 5.468C194.438 5.216 195.086 5.09 195.77 5.09C196.91 5.09 197.756 5.39 198.308 5.99C198.872 6.59 199.154 7.394 199.154 8.402V14H197.768V8.528C197.768 7.784 197.588 7.214 197.228 6.818C196.868 6.41 196.292 6.206 195.5 6.206C194.168 6.206 193.112 6.806 192.332 8.006V14H190.946V5.36ZM213.062 14.27C211.49 14.27 210.26 13.868 209.372 13.064C208.496 12.26 208.058 11.138 208.058 9.698C208.058 8.282 208.454 7.16 209.246 6.332C210.038 5.504 211.166 5.09 212.63 5.09C213.614 5.09 214.448 5.282 215.132 5.666C215.816 6.038 216.332 6.554 216.68 7.214C217.028 7.874 217.202 8.624 217.202 9.464V10.22H209.354C209.402 11.204 209.762 11.942 210.434 12.434C211.118 12.926 212.042 13.172 213.206 13.172C213.77 13.172 214.322 13.124 214.862 13.028C215.414 12.92 215.906 12.776 216.338 12.596V13.766C215.978 13.91 215.486 14.03 214.862 14.126C214.25 14.222 213.65 14.27 213.062 14.27ZM215.906 9.23C215.882 8.294 215.594 7.556 215.042 7.016C214.49 6.476 213.68 6.206 212.612 6.206C211.568 6.206 210.77 6.488 210.218 7.052C209.666 7.604 209.378 8.33 209.354 9.23H215.906ZM222.384 9.428L219.054 5.36H220.692L223.194 8.438L225.714 5.36H227.352L224.004 9.428L227.748 14H226.146L223.194 10.418L220.26 14H218.658L222.384 9.428ZM232.663 14.27C231.847 14.27 231.211 14.03 230.755 13.55C230.311 13.07 230.089 12.386 230.089 11.498V6.44H228.739V5.36H230.089V2.768H231.475V5.36H233.653V6.44H231.475V11.534C231.475 12.134 231.595 12.56 231.835 12.812C232.075 13.052 232.513 13.172 233.149 13.172C233.461 13.172 233.791 13.1 234.139 12.956V14.09C233.743 14.21 233.251 14.27 232.663 14.27ZM240.677 14.27C239.105 14.27 237.875 13.868 236.987 13.064C236.111 12.26 235.673 11.138 235.673 9.698C235.673 8.282 236.069 7.16 236.861 6.332C237.653 5.504 238.781 5.09 240.245 5.09C241.229 5.09 242.063 5.282 242.747 5.666C243.431 6.038 243.947 6.554 244.295 7.214C244.643 7.874 244.817 8.624 244.817 9.464V10.22H236.969C237.017 11.204 237.377 11.942 238.049 12.434C238.733 12.926 239.657 13.172 240.821 13.172C241.385 13.172 241.937 13.124 242.477 13.028C243.029 12.92 243.521 12.776 243.953 12.596V13.766C243.593 13.91 243.101 14.03 242.477 14.126C241.865 14.222 241.265 14.27 240.677 14.27ZM243.521 9.23C243.497 8.294 243.209 7.556 242.657 7.016C242.105 6.476 241.295 6.206 240.227 6.206C239.183 6.206 238.385 6.488 237.833 7.052C237.281 7.604 236.993 8.33 236.969 9.23H243.521ZM246.985 5.36H248.335V6.656C248.755 6.116 249.265 5.72 249.865 5.468C250.477 5.216 251.125 5.09 251.809 5.09C252.949 5.09 253.795 5.39 254.347 5.99C254.911 6.59 255.193 7.394 255.193 8.402V14H253.807V8.528C253.807 7.784 253.627 7.214 253.267 6.818C252.907 6.41 252.331 6.206 251.539 6.206C250.207 6.206 249.151 6.806 248.371 8.006V14H246.985V5.36ZM260.625 14.27C260.061 14.27 259.455 14.186 258.807 14.018C258.159 13.862 257.655 13.664 257.295 13.424V12.254C257.751 12.53 258.273 12.752 258.861 12.92C259.461 13.088 260.037 13.172 260.589 13.172C261.333 13.172 261.867 13.07 262.191 12.866C262.527 12.65 262.695 12.332 262.695 11.912C262.695 11.588 262.623 11.336 262.479 11.156C262.335 10.964 262.095 10.796 261.759 10.652C261.423 10.508 260.901 10.34 260.193 10.148C259.497 9.956 258.939 9.758 258.519 9.554C258.111 9.338 257.799 9.068 257.583 8.744C257.367 8.42 257.259 8.006 257.259 7.502C257.259 6.722 257.571 6.128 258.195 5.72C258.831 5.3 259.671 5.09 260.715 5.09C261.279 5.09 261.807 5.144 262.299 5.252C262.803 5.348 263.223 5.486 263.559 5.666V6.836C263.211 6.644 262.791 6.494 262.299 6.386C261.807 6.266 261.297 6.206 260.769 6.206C260.073 6.206 259.545 6.308 259.185 6.512C258.825 6.716 258.645 7.046 258.645 7.502C258.645 7.814 258.705 8.054 258.825 8.222C258.957 8.39 259.191 8.546 259.527 8.69C259.875 8.822 260.427 8.99 261.183 9.194C262.263 9.494 263.013 9.848 263.433 10.256C263.865 10.652 264.081 11.204 264.081 11.912C264.081 12.644 263.793 13.22 263.217 13.64C262.653 14.06 261.789 14.27 260.625 14.27ZM267.097 3.488C266.857 3.488 266.653 3.404 266.485 3.236C266.317 3.068 266.233 2.864 266.233 2.624C266.233 2.384 266.317 2.18 266.485 2.012C266.653 1.844 266.857 1.76 267.097 1.76C267.337 1.76 267.541 1.844 267.709 2.012C267.889 2.18 267.979 2.384 267.979 2.624C267.979 2.864 267.889 3.068 267.709 3.236C267.541 3.404 267.337 3.488 267.097 3.488ZM266.413 5.36H267.799V14H266.413V5.36ZM270.144 5.36H271.62L274.356 12.29L277.092 5.36H278.586L275.076 14H273.636L270.144 5.36ZM284.675 14.27C283.103 14.27 281.873 13.868 280.985 13.064C280.109 12.26 279.671 11.138 279.671 9.698C279.671 8.282 280.067 7.16 280.859 6.332C281.651 5.504 282.779 5.09 284.243 5.09C285.227 5.09 286.061 5.282 286.745 5.666C287.429 6.038 287.945 6.554 288.293 7.214C288.641 7.874 288.815 8.624 288.815 9.464V10.22H280.967C281.015 11.204 281.375 11.942 282.047 12.434C282.731 12.926 283.655 13.172 284.819 13.172C285.383 13.172 285.935 13.124 286.475 13.028C287.027 12.92 287.519 12.776 287.951 12.596V13.766C287.591 13.91 287.099 14.03 286.475 14.126C285.863 14.222 285.263 14.27 284.675 14.27ZM287.519 9.23C287.495 8.294 287.207 7.556 286.655 7.016C286.103 6.476 285.293 6.206 284.225 6.206C283.181 6.206 282.383 6.488 281.831 7.052C281.279 7.604 280.991 8.33 280.967 9.23H287.519ZM300.845 14.27C299.801 14.27 298.973 14.012 298.361 13.496C297.761 12.968 297.461 12.248 297.461 11.336C297.461 10.388 297.755 9.662 298.343 9.158C298.931 8.642 299.783 8.384 300.899 8.384C302.147 8.384 303.221 8.642 304.121 9.158V8.51C304.121 7.73 303.899 7.154 303.455 6.782C303.011 6.398 302.309 6.206 301.349 6.206C300.329 6.206 299.387 6.398 298.523 6.782V5.612C298.883 5.456 299.339 5.33 299.891 5.234C300.443 5.138 300.971 5.09 301.475 5.09C302.843 5.09 303.857 5.402 304.517 6.026C305.177 6.638 305.507 7.49 305.507 8.582V14H304.211V12.884C303.455 13.808 302.333 14.27 300.845 14.27ZM301.187 13.136C301.835 13.136 302.417 13.01 302.933 12.758C303.461 12.494 303.857 12.128 304.121 11.66V10.274C303.653 9.998 303.185 9.8 302.717 9.68C302.261 9.548 301.745 9.482 301.169 9.482C300.353 9.482 299.759 9.638 299.387 9.95C299.027 10.25 298.847 10.712 298.847 11.336C298.847 12.536 299.627 13.136 301.187 13.136ZM307.928 5.36H309.278V7.052C309.974 5.924 311.276 5.36 313.184 5.36V6.476C311.096 6.476 309.806 7.166 309.314 8.546V14H307.928V5.36ZM314.889 5.36H316.239V7.052C316.935 5.924 318.237 5.36 320.145 5.36V6.476C318.057 6.476 316.767 7.166 316.275 8.546V14H314.889V5.36ZM324.153 14.27C323.109 14.27 322.281 14.012 321.669 13.496C321.069 12.968 320.769 12.248 320.769 11.336C320.769 10.388 321.063 9.662 321.651 9.158C322.239 8.642 323.091 8.384 324.207 8.384C325.455 8.384 326.529 8.642 327.429 9.158V8.51C327.429 7.73 327.207 7.154 326.763 6.782C326.319 6.398 325.617 6.206 324.657 6.206C323.637 6.206 322.695 6.398 321.831 6.782V5.612C322.191 5.456 322.647 5.33 323.199 5.234C323.751 5.138 324.279 5.09 324.783 5.09C326.151 5.09 327.165 5.402 327.825 6.026C328.485 6.638 328.815 7.49 328.815 8.582V14H327.519V12.884C326.763 13.808 325.641 14.27 324.153 14.27ZM324.495 13.136C325.143 13.136 325.725 13.01 326.241 12.758C326.769 12.494 327.165 12.128 327.429 11.66V10.274C326.961 9.998 326.493 9.8 326.025 9.68C325.569 9.548 325.053 9.482 324.477 9.482C323.661 9.482 323.067 9.638 322.695 9.95C322.335 10.25 322.155 10.712 322.155 11.336C322.155 12.536 322.935 13.136 324.495 13.136ZM332.048 17.564C331.496 17.564 331.004 17.51 330.572 17.402V16.286C330.704 16.334 330.89 16.376 331.13 16.412C331.382 16.448 331.592 16.466 331.76 16.466C332.168 16.466 332.498 16.358 332.75 16.142C333.002 15.926 333.23 15.566 333.434 15.062L333.902 13.946L330.068 5.36H331.544L334.64 12.344L337.502 5.36H338.978L334.982 15.152C334.646 15.98 334.25 16.586 333.794 16.97C333.35 17.366 332.768 17.564 332.048 17.564ZM352.047 14.27C351.111 14.27 350.277 14.084 349.545 13.712C348.825 13.34 348.261 12.812 347.853 12.128C347.457 11.432 347.259 10.622 347.259 9.698C347.259 8.786 347.463 7.982 347.871 7.286C348.279 6.59 348.843 6.05 349.563 5.666C350.295 5.282 351.123 5.09 352.047 5.09C352.971 5.09 353.793 5.282 354.513 5.666C355.245 6.05 355.815 6.59 356.223 7.286C356.631 7.982 356.835 8.786 356.835 9.698C356.835 10.622 356.631 11.432 356.223 12.128C355.827 12.812 355.263 13.34 354.531 13.712C353.811 14.084 352.983 14.27 352.047 14.27ZM352.047 13.172C353.079 13.172 353.901 12.86 354.513 12.236C355.137 11.6 355.449 10.754 355.449 9.698C355.449 8.63 355.137 7.784 354.513 7.16C353.901 6.524 353.079 6.206 352.047 6.206C351.015 6.206 350.187 6.524 349.563 7.16C348.951 7.784 348.645 8.63 348.645 9.698C348.645 10.754 348.951 11.6 349.563 12.236C350.187 12.86 351.015 13.172 352.047 13.172ZM358.99 6.44H357.64V5.36H358.99V3.452C358.99 2.516 359.242 1.808 359.746 1.328C360.262 0.847999 360.952 0.608 361.816 0.608C362.272 0.608 362.698 0.668 363.094 0.788V1.958C362.758 1.802 362.41 1.724 362.05 1.724C361.474 1.724 361.048 1.874 360.772 2.174C360.508 2.462 360.376 2.912 360.376 3.524V5.36H362.572V6.44H360.376V14H358.99V6.44ZM375.777 14.27C374.865 14.27 374.043 14.09 373.311 13.73C372.591 13.358 372.027 12.83 371.619 12.146C371.211 11.45 371.007 10.634 371.007 9.698C371.007 8.774 371.211 7.964 371.619 7.268C372.039 6.56 372.615 6.02 373.347 5.648C374.079 5.276 374.907 5.09 375.831 5.09C376.491 5.09 377.073 5.15 377.577 5.27C378.081 5.39 378.531 5.582 378.927 5.846V7.016C378.171 6.476 377.181 6.206 375.957 6.206C374.901 6.206 374.043 6.512 373.383 7.124C372.723 7.736 372.393 8.594 372.393 9.698C372.393 10.802 372.723 11.66 373.383 12.272C374.043 12.872 374.883 13.172 375.903 13.172C376.539 13.172 377.109 13.1 377.613 12.956C378.117 12.812 378.597 12.59 379.053 12.29V13.46C378.633 13.748 378.159 13.952 377.631 14.072C377.115 14.204 376.497 14.27 375.777 14.27ZM385.376 14.27C384.44 14.27 383.606 14.084 382.874 13.712C382.154 13.34 381.59 12.812 381.182 12.128C380.786 11.432 380.588 10.622 380.588 9.698C380.588 8.786 380.792 7.982 381.2 7.286C381.608 6.59 382.172 6.05 382.892 5.666C383.624 5.282 384.452 5.09 385.376 5.09C386.3 5.09 387.122 5.282 387.842 5.666C388.574 6.05 389.144 6.59 389.552 7.286C389.96 7.982 390.164 8.786 390.164 9.698C390.164 10.622 389.96 11.432 389.552 12.128C389.156 12.812 388.592 13.34 387.86 13.712C387.14 14.084 386.312 14.27 385.376 14.27ZM385.376 13.172C386.408 13.172 387.23 12.86 387.842 12.236C388.465 11.6 388.777 10.754 388.777 9.698C388.777 8.63 388.465 7.784 387.842 7.16C387.23 6.524 386.408 6.206 385.376 6.206C384.344 6.206 383.516 6.524 382.892 7.16C382.28 7.784 381.974 8.63 381.974 9.698C381.974 10.754 382.28 11.6 382.892 12.236C383.516 12.86 384.344 13.172 385.376 13.172ZM392.321 5.36H393.653V6.71C394.481 5.63 395.507 5.09 396.731 5.09C397.451 5.09 398.009 5.216 398.405 5.468C398.813 5.72 399.107 6.098 399.287 6.602C399.671 6.086 400.145 5.708 400.709 5.468C401.285 5.216 401.873 5.09 402.473 5.09C403.505 5.09 404.255 5.354 404.723 5.882C405.191 6.41 405.425 7.19 405.425 8.222V14H404.057V8.384C404.057 7.58 403.913 7.016 403.625 6.692C403.349 6.368 402.851 6.206 402.131 6.206C401.099 6.206 400.247 6.668 399.575 7.592C399.611 7.76 399.629 8.036 399.629 8.42V14H398.279V8.42C398.279 7.616 398.147 7.046 397.883 6.71C397.619 6.374 397.127 6.206 396.407 6.206C395.375 6.206 394.469 6.782 393.689 7.934V14H392.321V5.36ZM407.86 5.36H409.21V6.854C410.062 5.678 411.322 5.09 412.99 5.09C413.842 5.09 414.61 5.282 415.294 5.666C415.978 6.05 416.518 6.59 416.914 7.286C417.31 7.982 417.508 8.786 417.508 9.698C417.508 10.598 417.31 11.396 416.914 12.092C416.53 12.788 415.99 13.328 415.294 13.712C414.61 14.084 413.842 14.27 412.99 14.27C412.21 14.27 411.484 14.126 410.812 13.838C410.14 13.538 409.618 13.106 409.246 12.542V17.942H407.86V5.36ZM412.702 13.172C413.35 13.172 413.932 13.028 414.448 12.74C414.976 12.452 415.384 12.05 415.672 11.534C415.972 11.006 416.122 10.394 416.122 9.698C416.122 9.014 415.972 8.408 415.672 7.88C415.384 7.34 414.976 6.926 414.448 6.638C413.932 6.35 413.35 6.206 412.702 6.206C411.886 6.206 411.166 6.422 410.542 6.854C409.93 7.274 409.498 7.856 409.246 8.6V10.742C409.474 11.474 409.9 12.062 410.524 12.506C411.16 12.95 411.886 13.172 412.702 13.172ZM422.239 14.27C421.195 14.27 420.367 14.012 419.755 13.496C419.155 12.968 418.855 12.248 418.855 11.336C418.855 10.388 419.149 9.662 419.737 9.158C420.325 8.642 421.177 8.384 422.293 8.384C423.541 8.384 424.615 8.642 425.515 9.158V8.51C425.515 7.73 425.293 7.154 424.849 6.782C424.405 6.398 423.703 6.206 422.743 6.206C421.723 6.206 420.781 6.398 419.917 6.782V5.612C420.277 5.456 420.733 5.33 421.285 5.234C421.837 5.138 422.365 5.09 422.869 5.09C424.237 5.09 425.251 5.402 425.911 6.026C426.571 6.638 426.901 7.49 426.901 8.582V14H425.605V12.884C424.849 13.808 423.727 14.27 422.239 14.27ZM422.581 13.136C423.229 13.136 423.811 13.01 424.327 12.758C424.855 12.494 425.251 12.128 425.515 11.66V10.274C425.047 9.998 424.579 9.8 424.111 9.68C423.655 9.548 423.139 9.482 422.563 9.482C421.747 9.482 421.153 9.638 420.781 9.95C420.421 10.25 420.241 10.712 420.241 11.336C420.241 12.536 421.021 13.136 422.581 13.136ZM429.323 5.36H430.673V6.656C431.093 6.116 431.603 5.72 432.203 5.468C432.815 5.216 433.463 5.09 434.147 5.09C435.287 5.09 436.133 5.39 436.685 5.99C437.249 6.59 437.531 7.394 437.531 8.402V14H436.145V8.528C436.145 7.784 435.965 7.214 435.605 6.818C435.245 6.41 434.669 6.206 433.877 6.206C432.545 6.206 431.489 6.806 430.708 8.006V14H429.323V5.36ZM440.821 3.488C440.581 3.488 440.377 3.404 440.209 3.236C440.041 3.068 439.957 2.864 439.957 2.624C439.957 2.384 440.041 2.18 440.209 2.012C440.377 1.844 440.581 1.76 440.821 1.76C441.061 1.76 441.265 1.844 441.433 2.012C441.613 2.18 441.703 2.384 441.703 2.624C441.703 2.864 441.613 3.068 441.433 3.236C441.265 3.404 441.061 3.488 440.821 3.488ZM440.137 5.36H441.523V14H440.137V5.36ZM448.873 14.27C447.301 14.27 446.071 13.868 445.183 13.064C444.307 12.26 443.869 11.138 443.869 9.698C443.869 8.282 444.265 7.16 445.057 6.332C445.849 5.504 446.977 5.09 448.441 5.09C449.425 5.09 450.259 5.282 450.943 5.666C451.627 6.038 452.143 6.554 452.491 7.214C452.839 7.874 453.013 8.624 453.013 9.464V10.22H445.165C445.213 11.204 445.573 11.942 446.245 12.434C446.929 12.926 447.853 13.172 449.017 13.172C449.581 13.172 450.133 13.124 450.673 13.028C451.225 12.92 451.717 12.776 452.149 12.596V13.766C451.789 13.91 451.297 14.03 450.673 14.126C450.061 14.222 449.461 14.27 448.873 14.27ZM451.717 9.23C451.693 8.294 451.405 7.556 450.853 7.016C450.301 6.476 449.491 6.206 448.423 6.206C447.379 6.206 446.581 6.488 446.029 7.052C445.477 7.604 445.189 8.33 445.165 9.23H451.717ZM458.186 14.27C457.622 14.27 457.016 14.186 456.368 14.018C455.72 13.862 455.216 13.664 454.856 13.424V12.254C455.312 12.53 455.834 12.752 456.422 12.92C457.022 13.088 457.598 13.172 458.15 13.172C458.894 13.172 459.428 13.07 459.752 12.866C460.088 12.65 460.256 12.332 460.256 11.912C460.256 11.588 460.184 11.336 460.04 11.156C459.896 10.964 459.656 10.796 459.32 10.652C458.984 10.508 458.462 10.34 457.754 10.148C457.058 9.956 456.5 9.758 456.08 9.554C455.672 9.338 455.36 9.068 455.144 8.744C454.928 8.42 454.82 8.006 454.82 7.502C454.82 6.722 455.132 6.128 455.756 5.72C456.392 5.3 457.232 5.09 458.276 5.09C458.84 5.09 459.368 5.144 459.86 5.252C460.364 5.348 460.784 5.486 461.12 5.666V6.836C460.772 6.644 460.352 6.494 459.86 6.386C459.368 6.266 458.858 6.206 458.33 6.206C457.634 6.206 457.106 6.308 456.746 6.512C456.386 6.716 456.206 7.046 456.206 7.502C456.206 7.814 456.266 8.054 456.386 8.222C456.518 8.39 456.752 8.546 457.088 8.69C457.436 8.822 457.988 8.99 458.744 9.194C459.824 9.494 460.574 9.848 460.994 10.256C461.426 10.652 461.642 11.204 461.642 11.912C461.642 12.644 461.354 13.22 460.778 13.64C460.214 14.06 459.35 14.27 458.186 14.27ZM473.655 14.27C472.611 14.27 471.783 14.012 471.171 13.496C470.571 12.968 470.271 12.248 470.271 11.336C470.271 10.388 470.565 9.662 471.153 9.158C471.741 8.642 472.593 8.384 473.709 8.384C474.957 8.384 476.031 8.642 476.931 9.158V8.51C476.931 7.73 476.709 7.154 476.265 6.782C475.821 6.398 475.119 6.206 474.159 6.206C473.139 6.206 472.197 6.398 471.333 6.782V5.612C471.693 5.456 472.149 5.33 472.701 5.234C473.253 5.138 473.781 5.09 474.285 5.09C475.653 5.09 476.667 5.402 477.327 6.026C477.987 6.638 478.317 7.49 478.317 8.582V14H477.021V12.884C476.265 13.808 475.143 14.27 473.655 14.27ZM473.997 13.136C474.645 13.136 475.227 13.01 475.743 12.758C476.271 12.494 476.667 12.128 476.931 11.66V10.274C476.463 9.998 475.995 9.8 475.527 9.68C475.071 9.548 474.555 9.482 473.979 9.482C473.163 9.482 472.569 9.638 472.197 9.95C471.837 10.25 471.657 10.712 471.657 11.336C471.657 12.536 472.437 13.136 473.997 13.136ZM480.739 5.36H482.089V6.656C482.509 6.116 483.019 5.72 483.619 5.468C484.231 5.216 484.879 5.09 485.563 5.09C486.703 5.09 487.549 5.39 488.101 5.99C488.665 6.59 488.947 7.394 488.947 8.402V14H487.561V8.528C487.561 7.784 487.381 7.214 487.021 6.818C486.661 6.41 486.085 6.206 485.293 6.206C483.961 6.206 482.905 6.806 482.125 8.006V14H480.739V5.36ZM495.531 14.27C494.679 14.27 493.911 14.084 493.227 13.712C492.543 13.34 492.003 12.806 491.607 12.11C491.211 11.414 491.013 10.61 491.013 9.698C491.013 8.798 491.205 8 491.589 7.304C491.985 6.596 492.525 6.05 493.209 5.666C493.905 5.282 494.679 5.09 495.531 5.09C496.359 5.09 497.091 5.24 497.727 5.54C498.375 5.828 498.891 6.254 499.275 6.818V0.698H500.661V14H499.311V12.488C498.855 13.088 498.315 13.538 497.691 13.838C497.079 14.126 496.359 14.27 495.531 14.27ZM495.819 13.172C496.647 13.172 497.367 12.962 497.979 12.542C498.603 12.11 499.035 11.522 499.275 10.778V8.618C499.047 7.874 498.621 7.286 497.997 6.854C497.385 6.422 496.659 6.206 495.819 6.206C495.183 6.206 494.601 6.356 494.073 6.656C493.557 6.944 493.149 7.352 492.849 7.88C492.549 8.408 492.399 9.014 492.399 9.698C492.399 10.382 492.549 10.988 492.849 11.516C493.149 12.044 493.557 12.452 494.073 12.74C494.601 13.028 495.183 13.172 495.819 13.172ZM515.154 14.27C514.326 14.27 513.6 14.126 512.976 13.838C512.364 13.538 511.83 13.088 511.374 12.488V14H510.024V0.698H511.41V6.818C511.782 6.254 512.304 5.828 512.976 5.54C513.648 5.24 514.374 5.09 515.154 5.09C516.006 5.09 516.774 5.282 517.458 5.666C518.154 6.05 518.694 6.596 519.078 7.304C519.474 8 519.672 8.798 519.672 9.698C519.672 10.61 519.474 11.414 519.078 12.11C518.682 12.806 518.142 13.34 517.458 13.712C516.774 14.084 516.006 14.27 515.154 14.27ZM514.866 13.172C515.502 13.172 516.078 13.028 516.594 12.74C517.122 12.452 517.536 12.044 517.836 11.516C518.136 10.988 518.286 10.382 518.286 9.698C518.286 9.014 518.136 8.408 517.836 7.88C517.536 7.352 517.122 6.944 516.594 6.656C516.078 6.356 515.502 6.206 514.866 6.206C514.05 6.206 513.324 6.422 512.688 6.854C512.064 7.286 511.638 7.874 511.41 8.618V10.778C511.65 11.522 512.076 12.11 512.688 12.542C513.312 12.962 514.038 13.172 514.866 13.172ZM521.836 5.36H523.186V7.052C523.882 5.924 525.184 5.36 527.092 5.36V6.476C525.004 6.476 523.714 7.166 523.222 8.546V14H521.836V5.36ZM531.1 14.27C530.056 14.27 529.228 14.012 528.616 13.496C528.016 12.968 527.716 12.248 527.716 11.336C527.716 10.388 528.01 9.662 528.598 9.158C529.186 8.642 530.038 8.384 531.154 8.384C532.402 8.384 533.476 8.642 534.376 9.158V8.51C534.376 7.73 534.154 7.154 533.71 6.782C533.266 6.398 532.564 6.206 531.604 6.206C530.584 6.206 529.642 6.398 528.778 6.782V5.612C529.138 5.456 529.594 5.33 530.146 5.234C530.698 5.138 531.226 5.09 531.73 5.09C533.098 5.09 534.112 5.402 534.772 6.026C535.432 6.638 535.762 7.49 535.762 8.582V14H534.466V12.884C533.71 13.808 532.588 14.27 531.1 14.27ZM531.442 13.136C532.09 13.136 532.672 13.01 533.188 12.758C533.716 12.494 534.112 12.128 534.376 11.66V10.274C533.908 9.998 533.44 9.8 532.972 9.68C532.516 9.548 532 9.482 531.424 9.482C530.608 9.482 530.014 9.638 529.642 9.95C529.282 10.25 529.102 10.712 529.102 11.336C529.102 12.536 529.882 13.136 531.442 13.136ZM538.184 5.36H539.534V6.656C539.954 6.116 540.464 5.72 541.064 5.468C541.676 5.216 542.324 5.09 543.008 5.09C544.148 5.09 544.994 5.39 545.546 5.99C546.11 6.59 546.392 7.394 546.392 8.402V14H545.006V8.528C545.006 7.784 544.826 7.214 544.466 6.818C544.106 6.41 543.53 6.206 542.738 6.206C541.406 6.206 540.35 6.806 539.57 8.006V14H538.184V5.36ZM552.977 14.27C552.125 14.27 551.357 14.084 550.673 13.712C549.989 13.34 549.449 12.806 549.053 12.11C548.657 11.414 548.459 10.61 548.459 9.698C548.459 8.798 548.651 8 549.035 7.304C549.431 6.596 549.971 6.05 550.655 5.666C551.351 5.282 552.125 5.09 552.977 5.09C553.805 5.09 554.537 5.24 555.173 5.54C555.821 5.828 556.337 6.254 556.721 6.818V0.698H558.107V14H556.757V12.488C556.301 13.088 555.761 13.538 555.137 13.838C554.525 14.126 553.805 14.27 552.977 14.27ZM553.265 13.172C554.093 13.172 554.813 12.962 555.425 12.542C556.049 12.11 556.481 11.522 556.721 10.778V8.618C556.493 7.874 556.067 7.286 555.443 6.854C554.831 6.422 554.105 6.206 553.265 6.206C552.629 6.206 552.047 6.356 551.519 6.656C551.003 6.944 550.595 7.352 550.295 7.88C549.995 8.408 549.845 9.014 549.845 9.698C549.845 10.382 549.995 10.988 550.295 11.516C550.595 12.044 551.003 12.452 551.519 12.74C552.047 13.028 552.629 13.172 553.265 13.172ZM563.637 14.27C563.073 14.27 562.467 14.186 561.819 14.018C561.171 13.862 560.667 13.664 560.307 13.424V12.254C560.763 12.53 561.285 12.752 561.873 12.92C562.473 13.088 563.049 13.172 563.601 13.172C564.345 13.172 564.879 13.07 565.203 12.866C565.539 12.65 565.707 12.332 565.707 11.912C565.707 11.588 565.635 11.336 565.491 11.156C565.347 10.964 565.107 10.796 564.771 10.652C564.435 10.508 563.913 10.34 563.205 10.148C562.509 9.956 561.951 9.758 561.531 9.554C561.123 9.338 560.811 9.068 560.595 8.744C560.379 8.42 560.271 8.006 560.271 7.502C560.271 6.722 560.583 6.128 561.207 5.72C561.843 5.3 562.683 5.09 563.727 5.09C564.291 5.09 564.819 5.144 565.311 5.252C565.815 5.348 566.235 5.486 566.571 5.666V6.836C566.223 6.644 565.803 6.494 565.311 6.386C564.819 6.266 564.309 6.206 563.781 6.206C563.085 6.206 562.557 6.308 562.197 6.512C561.837 6.716 561.657 7.046 561.657 7.502C561.657 7.814 561.717 8.054 561.837 8.222C561.969 8.39 562.203 8.546 562.539 8.69C562.887 8.822 563.439 8.99 564.195 9.194C565.275 9.494 566.025 9.848 566.445 10.256C566.877 10.652 567.093 11.204 567.093 11.912C567.093 12.644 566.805 13.22 566.229 13.64C565.665 14.06 564.801 14.27 563.637 14.27ZM569.676 14C569.448 14 569.256 13.928 569.1 13.784C568.956 13.628 568.884 13.436 568.884 13.208C568.884 12.98 568.956 12.788 569.1 12.632C569.256 12.476 569.448 12.398 569.676 12.398C569.904 12.398 570.096 12.476 570.252 12.632C570.408 12.788 570.486 12.98 570.486 13.208C570.486 13.436 570.408 13.628 570.252 13.784C570.096 13.928 569.904 14 569.676 14ZM580.572 14.27C580.248 14.27 579.912 14.246 579.564 14.198C579.228 14.15 578.964 14.084 578.772 14V12.776C578.952 12.848 579.192 12.908 579.492 12.956C579.804 12.992 580.08 13.01 580.32 13.01C581.604 13.01 582.246 12.374 582.246 11.102V1.418H583.65V11.21C583.65 12.182 583.368 12.938 582.804 13.478C582.24 14.006 581.496 14.27 580.572 14.27ZM589.576 14.27C588.424 14.27 587.536 13.958 586.912 13.334C586.3 12.71 585.994 11.876 585.994 10.832V5.36H587.38V10.904C587.38 12.416 588.166 13.172 589.738 13.172C590.398 13.172 590.974 13.028 591.466 12.74C591.97 12.452 592.42 11.996 592.816 11.372V5.36H594.202V14H592.852V12.704C592.072 13.748 590.98 14.27 589.576 14.27ZM599.725 14.27C599.161 14.27 598.555 14.186 597.907 14.018C597.259 13.862 596.755 13.664 596.395 13.424V12.254C596.851 12.53 597.373 12.752 597.961 12.92C598.561 13.088 599.137 13.172 599.689 13.172C600.433 13.172 600.967 13.07 601.291 12.866C601.627 12.65 601.795 12.332 601.795 11.912C601.795 11.588 601.723 11.336 601.579 11.156C601.435 10.964 601.195 10.796 600.859 10.652C600.523 10.508 600.001 10.34 599.293 10.148C598.597 9.956 598.039 9.758 597.619 9.554C597.211 9.338 596.899 9.068 596.683 8.744C596.467 8.42 596.359 8.006 596.359 7.502C596.359 6.722 596.671 6.128 597.295 5.72C597.931 5.3 598.771 5.09 599.815 5.09C600.379 5.09 600.907 5.144 601.399 5.252C601.903 5.348 602.323 5.486 602.659 5.666V6.836C602.311 6.644 601.891 6.494 601.399 6.386C600.907 6.266 600.397 6.206 599.869 6.206C599.173 6.206 598.645 6.308 598.285 6.512C597.925 6.716 597.745 7.046 597.745 7.502C597.745 7.814 597.805 8.054 597.925 8.222C598.057 8.39 598.291 8.546 598.627 8.69C598.975 8.822 599.527 8.99 600.283 9.194C601.363 9.494 602.113 9.848 602.533 10.256C602.965 10.652 603.181 11.204 603.181 11.912C603.181 12.644 602.893 13.22 602.317 13.64C601.753 14.06 600.889 14.27 599.725 14.27ZM608.273 14.27C607.457 14.27 606.821 14.03 606.365 13.55C605.921 13.07 605.699 12.386 605.699 11.498V6.44H604.349V5.36H605.699V2.768H607.085V5.36H609.263V6.44H607.085V11.534C607.085 12.134 607.205 12.56 607.445 12.812C607.685 13.052 608.123 13.172 608.759 13.172C609.071 13.172 609.401 13.1 609.749 12.956V14.09C609.353 14.21 608.861 14.27 608.273 14.27ZM4.464 43.27C3.648 43.27 3.012 43.03 2.556 42.55C2.112 42.07 1.89 41.386 1.89 40.498V35.44H0.54V34.36H1.89V31.768H3.276V34.36H5.454V35.44H3.276V40.534C3.276 41.134 3.396 41.56 3.636 41.812C3.876 42.052 4.314 42.172 4.95 42.172C5.262 42.172 5.592 42.1 5.94 41.956V43.09C5.544 43.21 5.052 43.27 4.464 43.27ZM7.83422 29.698H9.22022V35.62C10.0482 34.6 11.1942 34.09 12.6582 34.09C13.7982 34.09 14.6442 34.39 15.1962 34.99C15.7602 35.59 16.0422 36.394 16.0422 37.402V43H14.6562V37.528C14.6562 36.784 14.4762 36.214 14.1162 35.818C13.7562 35.41 13.1802 35.206 12.3882 35.206C11.0562 35.206 10.0002 35.806 9.22022 37.006V43H7.83422V29.698ZM23.113 43.27C21.541 43.27 20.311 42.868 19.423 42.064C18.547 41.26 18.109 40.138 18.109 38.698C18.109 37.282 18.505 36.16 19.297 35.332C20.089 34.504 21.217 34.09 22.681 34.09C23.665 34.09 24.499 34.282 25.183 34.666C25.867 35.038 26.383 35.554 26.731 36.214C27.079 36.874 27.253 37.624 27.253 38.464V39.22H19.405C19.453 40.204 19.813 40.942 20.485 41.434C21.169 41.926 22.093 42.172 23.257 42.172C23.821 42.172 24.373 42.124 24.913 42.028C25.465 41.92 25.957 41.776 26.389 41.596V42.766C26.029 42.91 25.537 43.03 24.913 43.126C24.301 43.222 23.701 43.27 23.113 43.27ZM25.957 38.23C25.933 37.294 25.645 36.556 25.093 36.016C24.541 35.476 23.731 35.206 22.663 35.206C21.619 35.206 20.821 35.488 20.269 36.052C19.717 36.604 19.429 37.33 19.405 38.23H25.957ZM36.888 35.44H35.538V34.36H36.888V32.452C36.888 31.516 37.14 30.808 37.644 30.328C38.16 29.848 38.85 29.608 39.714 29.608C40.17 29.608 40.596 29.668 40.992 29.788V30.958C40.656 30.802 40.308 30.724 39.948 30.724C39.372 30.724 38.946 30.874 38.67 31.174C38.406 31.462 38.274 31.912 38.274 32.524V34.36H40.47V35.44H38.274V43H36.888V35.44ZM46.2232 43.27C45.2872 43.27 44.4532 43.084 43.7212 42.712C43.0012 42.34 42.4372 41.812 42.0292 41.128C41.6332 40.432 41.4352 39.622 41.4352 38.698C41.4352 37.786 41.6392 36.982 42.0472 36.286C42.4552 35.59 43.0192 35.05 43.7392 34.666C44.4712 34.282 45.2992 34.09 46.2232 34.09C47.1472 34.09 47.9692 34.282 48.6892 34.666C49.4212 35.05 49.9912 35.59 50.3992 36.286C50.8072 36.982 51.0112 37.786 51.0112 38.698C51.0112 39.622 50.8072 40.432 50.3992 41.128C50.0032 41.812 49.4392 42.34 48.7072 42.712C47.9872 43.084 47.1592 43.27 46.2232 43.27ZM46.2232 42.172C47.2552 42.172 48.0772 41.86 48.6892 41.236C49.3132 40.6 49.6252 39.754 49.6252 38.698C49.6252 37.63 49.3132 36.784 48.6892 36.16C48.0772 35.524 47.2552 35.206 46.2232 35.206C45.1912 35.206 44.3632 35.524 43.7392 36.16C43.1272 36.784 42.8212 37.63 42.8212 38.698C42.8212 39.754 43.1272 40.6 43.7392 41.236C44.3632 41.86 45.1912 42.172 46.2232 42.172ZM57.1392 43.27C56.2032 43.27 55.3692 43.084 54.6372 42.712C53.9172 42.34 53.3532 41.812 52.9452 41.128C52.5492 40.432 52.3512 39.622 52.3512 38.698C52.3512 37.786 52.5552 36.982 52.9632 36.286C53.3712 35.59 53.9352 35.05 54.6552 34.666C55.3872 34.282 56.2152 34.09 57.1392 34.09C58.0632 34.09 58.8852 34.282 59.6052 34.666C60.3372 35.05 60.9072 35.59 61.3152 36.286C61.7232 36.982 61.9272 37.786 61.9272 38.698C61.9272 39.622 61.7232 40.432 61.3152 41.128C60.9192 41.812 60.3552 42.34 59.6232 42.712C58.9032 43.084 58.0752 43.27 57.1392 43.27ZM57.1392 42.172C58.1712 42.172 58.9932 41.86 59.6052 41.236C60.2292 40.6 60.5412 39.754 60.5412 38.698C60.5412 37.63 60.2292 36.784 59.6052 36.16C58.9932 35.524 58.1712 35.206 57.1392 35.206C56.1072 35.206 55.2792 35.524 54.6552 36.16C54.0432 36.784 53.7372 37.63 53.7372 38.698C53.7372 39.754 54.0432 40.6 54.6552 41.236C55.2792 41.86 56.1072 42.172 57.1392 42.172ZM67.9785 43.27C67.1265 43.27 66.3585 43.084 65.6745 42.712C64.9905 42.34 64.4505 41.806 64.0545 41.11C63.6585 40.414 63.4605 39.61 63.4605 38.698C63.4605 37.798 63.6525 37 64.0365 36.304C64.4325 35.596 64.9725 35.05 65.6565 34.666C66.3525 34.282 67.1265 34.09 67.9785 34.09C68.8065 34.09 69.5385 34.24 70.1745 34.54C70.8225 34.828 71.3385 35.254 71.7225 35.818V29.698H73.1085V43H71.7585V41.488C71.3025 42.088 70.7625 42.538 70.1385 42.838C69.5265 43.126 68.8065 43.27 67.9785 43.27ZM68.2665 42.172C69.0945 42.172 69.8145 41.962 70.4265 41.542C71.0505 41.11 71.4825 40.522 71.7225 39.778V37.618C71.4945 36.874 71.0685 36.286 70.4445 35.854C69.8325 35.422 69.1065 35.206 68.2665 35.206C67.6305 35.206 67.0485 35.356 66.5205 35.656C66.0045 35.944 65.5965 36.352 65.2965 36.88C64.9965 37.408 64.8465 38.014 64.8465 38.698C64.8465 39.382 64.9965 39.988 65.2965 40.516C65.5965 41.044 66.0045 41.452 66.5205 41.74C67.0485 42.028 67.6305 42.172 68.2665 42.172ZM85.4769 43.27C84.9129 43.27 84.3069 43.186 83.6589 43.018C83.0109 42.862 82.5069 42.664 82.1469 42.424V41.254C82.6029 41.53 83.1249 41.752 83.7129 41.92C84.3129 42.088 84.8889 42.172 85.4409 42.172C86.1849 42.172 86.7189 42.07 87.0429 41.866C87.3789 41.65 87.5469 41.332 87.5469 40.912C87.5469 40.588 87.4749 40.336 87.3309 40.156C87.1869 39.964 86.9469 39.796 86.6109 39.652C86.2749 39.508 85.7529 39.34 85.0449 39.148C84.3489 38.956 83.7909 38.758 83.3709 38.554C82.9629 38.338 82.6509 38.068 82.4349 37.744C82.2189 37.42 82.1109 37.006 82.1109 36.502C82.1109 35.722 82.4229 35.128 83.0469 34.72C83.6829 34.3 84.5229 34.09 85.5669 34.09C86.1309 34.09 86.6589 34.144 87.1509 34.252C87.6549 34.348 88.0749 34.486 88.4109 34.666V35.836C88.0629 35.644 87.6429 35.494 87.1509 35.386C86.6589 35.266 86.1489 35.206 85.6209 35.206C84.9249 35.206 84.3969 35.308 84.0369 35.512C83.6769 35.716 83.4969 36.046 83.4969 36.502C83.4969 36.814 83.5569 37.054 83.6769 37.222C83.8089 37.39 84.0429 37.546 84.3789 37.69C84.7269 37.822 85.2789 37.99 86.0349 38.194C87.1149 38.494 87.8649 38.848 88.2849 39.256C88.7169 39.652 88.9329 40.204 88.9329 40.912C88.9329 41.644 88.6449 42.22 88.0689 42.64C87.5049 43.06 86.6409 43.27 85.4769 43.27ZM95.7282 43.27C94.1562 43.27 92.9262 42.868 92.0382 42.064C91.1622 41.26 90.7242 40.138 90.7242 38.698C90.7242 37.282 91.1202 36.16 91.9122 35.332C92.7042 34.504 93.8322 34.09 95.2962 34.09C96.2802 34.09 97.1142 34.282 97.7982 34.666C98.4822 35.038 98.9982 35.554 99.3462 36.214C99.6942 36.874 99.8682 37.624 99.8682 38.464V39.22H92.0202C92.0682 40.204 92.4282 40.942 93.1002 41.434C93.7842 41.926 94.7082 42.172 95.8722 42.172C96.4362 42.172 96.9882 42.124 97.5282 42.028C98.0802 41.92 98.5722 41.776 99.0042 41.596V42.766C98.6442 42.91 98.1522 43.03 97.5282 43.126C96.9162 43.222 96.3162 43.27 95.7282 43.27ZM98.5722 38.23C98.5482 37.294 98.2602 36.556 97.7082 36.016C97.1562 35.476 96.3462 35.206 95.2782 35.206C94.2342 35.206 93.4362 35.488 92.8842 36.052C92.3322 36.604 92.0442 37.33 92.0202 38.23H98.5722ZM106.499 47.14C105.923 47.14 105.359 47.092 104.807 46.996C104.255 46.9 103.787 46.768 103.403 46.6V45.43C104.315 45.838 105.347 46.042 106.499 46.042C107.675 46.042 108.539 45.772 109.091 45.232C109.655 44.704 109.937 43.9 109.937 42.82V41.542C109.157 42.694 107.921 43.27 106.229 43.27C105.377 43.27 104.603 43.084 103.907 42.712C103.211 42.328 102.665 41.788 102.269 41.092C101.873 40.396 101.675 39.598 101.675 38.698C101.675 37.786 101.873 36.982 102.269 36.286C102.665 35.59 103.205 35.05 103.889 34.666C104.573 34.282 105.341 34.09 106.193 34.09C107.081 34.09 107.819 34.228 108.407 34.504C108.995 34.768 109.517 35.206 109.973 35.818V34.36H111.323V42.64C111.323 44.104 110.927 45.22 110.135 45.988C109.343 46.756 108.131 47.14 106.499 47.14ZM106.481 42.172C107.333 42.172 108.065 41.956 108.677 41.524C109.289 41.092 109.709 40.498 109.937 39.742V37.6C109.697 36.844 109.271 36.256 108.659 35.836C108.047 35.416 107.321 35.206 106.481 35.206C105.845 35.206 105.263 35.356 104.735 35.656C104.219 35.944 103.811 36.352 103.511 36.88C103.211 37.408 103.061 38.014 103.061 38.698C103.061 39.394 103.211 40.006 103.511 40.534C103.811 41.05 104.219 41.452 104.735 41.74C105.263 42.028 105.845 42.172 106.481 42.172ZM113.848 34.36H115.18V35.71C116.008 34.63 117.034 34.09 118.258 34.09C118.978 34.09 119.536 34.216 119.932 34.468C120.34 34.72 120.634 35.098 120.814 35.602C121.198 35.086 121.672 34.708 122.236 34.468C122.812 34.216 123.4 34.09 124 34.09C125.032 34.09 125.782 34.354 126.25 34.882C126.718 35.41 126.952 36.19 126.952 37.222V43H125.584V37.384C125.584 36.58 125.44 36.016 125.152 35.692C124.876 35.368 124.378 35.206 123.658 35.206C122.626 35.206 121.774 35.668 121.102 36.592C121.138 36.76 121.156 37.036 121.156 37.42V43H119.806V37.42C119.806 36.616 119.674 36.046 119.41 35.71C119.146 35.374 118.654 35.206 117.934 35.206C116.902 35.206 115.996 35.782 115.216 36.934V43H113.848V34.36ZM134.031 43.27C132.459 43.27 131.229 42.868 130.341 42.064C129.465 41.26 129.027 40.138 129.027 38.698C129.027 37.282 129.423 36.16 130.215 35.332C131.007 34.504 132.135 34.09 133.599 34.09C134.583 34.09 135.417 34.282 136.101 34.666C136.785 35.038 137.301 35.554 137.649 36.214C137.997 36.874 138.171 37.624 138.171 38.464V39.22H130.323C130.371 40.204 130.731 40.942 131.403 41.434C132.087 41.926 133.011 42.172 134.175 42.172C134.739 42.172 135.291 42.124 135.831 42.028C136.383 41.92 136.875 41.776 137.307 41.596V42.766C136.947 42.91 136.455 43.03 135.831 43.126C135.219 43.222 134.619 43.27 134.031 43.27ZM136.875 38.23C136.851 37.294 136.563 36.556 136.011 36.016C135.459 35.476 134.649 35.206 133.581 35.206C132.537 35.206 131.739 35.488 131.187 36.052C130.635 36.604 130.347 37.33 130.323 38.23H136.875ZM140.338 34.36H141.688V35.656C142.108 35.116 142.618 34.72 143.218 34.468C143.83 34.216 144.478 34.09 145.162 34.09C146.302 34.09 147.148 34.39 147.7 34.99C148.264 35.59 148.546 36.394 148.546 37.402V43H147.16V37.528C147.16 36.784 146.98 36.214 146.62 35.818C146.26 35.41 145.684 35.206 144.892 35.206C143.56 35.206 142.504 35.806 141.724 37.006V43H140.338V34.36ZM154.177 43.27C153.361 43.27 152.725 43.03 152.269 42.55C151.825 42.07 151.603 41.386 151.603 40.498V35.44H150.253V34.36H151.603V31.768H152.989V34.36H155.167V35.44H152.989V40.534C152.989 41.134 153.109 41.56 153.349 41.812C153.589 42.052 154.027 42.172 154.663 42.172C154.975 42.172 155.305 42.1 155.653 41.956V43.09C155.257 43.21 154.765 43.27 154.177 43.27ZM167.409 43.27C166.365 43.27 165.537 43.012 164.925 42.496C164.325 41.968 164.025 41.248 164.025 40.336C164.025 39.388 164.319 38.662 164.907 38.158C165.495 37.642 166.347 37.384 167.463 37.384C168.711 37.384 169.785 37.642 170.685 38.158V37.51C170.685 36.73 170.463 36.154 170.019 35.782C169.575 35.398 168.873 35.206 167.913 35.206C166.893 35.206 165.951 35.398 165.087 35.782V34.612C165.447 34.456 165.903 34.33 166.455 34.234C167.007 34.138 167.535 34.09 168.039 34.09C169.407 34.09 170.421 34.402 171.081 35.026C171.741 35.638 172.071 36.49 172.071 37.582V43H170.775V41.884C170.019 42.808 168.897 43.27 167.409 43.27ZM167.751 42.136C168.399 42.136 168.981 42.01 169.497 41.758C170.025 41.494 170.421 41.128 170.685 40.66V39.274C170.217 38.998 169.749 38.8 169.281 38.68C168.825 38.548 168.309 38.482 167.733 38.482C166.917 38.482 166.323 38.638 165.951 38.95C165.591 39.25 165.411 39.712 165.411 40.336C165.411 41.536 166.191 42.136 167.751 42.136ZM174.492 29.698H175.878V43H174.492V29.698ZM182.823 43.27C181.887 43.27 181.053 43.084 180.321 42.712C179.601 42.34 179.037 41.812 178.629 41.128C178.233 40.432 178.035 39.622 178.035 38.698C178.035 37.786 178.239 36.982 178.647 36.286C179.055 35.59 179.619 35.05 180.339 34.666C181.071 34.282 181.899 34.09 182.823 34.09C183.747 34.09 184.569 34.282 185.289 34.666C186.021 35.05 186.591 35.59 186.999 36.286C187.407 36.982 187.611 37.786 187.611 38.698C187.611 39.622 187.407 40.432 186.999 41.128C186.603 41.812 186.039 42.34 185.307 42.712C184.587 43.084 183.759 43.27 182.823 43.27ZM182.823 42.172C183.855 42.172 184.677 41.86 185.289 41.236C185.913 40.6 186.225 39.754 186.225 38.698C186.225 37.63 185.913 36.784 185.289 36.16C184.677 35.524 183.855 35.206 182.823 35.206C181.791 35.206 180.963 35.524 180.339 36.16C179.727 36.784 179.421 37.63 179.421 38.698C179.421 39.754 179.727 40.6 180.339 41.236C180.963 41.86 181.791 42.172 182.823 42.172ZM189.768 34.36H191.118V35.656C191.538 35.116 192.048 34.72 192.648 34.468C193.26 34.216 193.908 34.09 194.592 34.09C195.732 34.09 196.578 34.39 197.13 34.99C197.694 35.59 197.976 36.394 197.976 37.402V43H196.59V37.528C196.59 36.784 196.41 36.214 196.05 35.818C195.69 35.41 195.114 35.206 194.322 35.206C192.99 35.206 191.934 35.806 191.154 37.006V43H189.768V34.36ZM205.047 43.27C203.475 43.27 202.245 42.868 201.357 42.064C200.481 41.26 200.043 40.138 200.043 38.698C200.043 37.282 200.439 36.16 201.231 35.332C202.023 34.504 203.151 34.09 204.615 34.09C205.599 34.09 206.433 34.282 207.117 34.666C207.801 35.038 208.317 35.554 208.665 36.214C209.013 36.874 209.187 37.624 209.187 38.464V39.22H201.339C201.387 40.204 201.747 40.942 202.419 41.434C203.103 41.926 204.027 42.172 205.191 42.172C205.755 42.172 206.307 42.124 206.847 42.028C207.399 41.92 207.891 41.776 208.323 41.596V42.766C207.963 42.91 207.471 43.03 206.847 43.126C206.235 43.222 205.635 43.27 205.047 43.27ZM207.891 38.23C207.867 37.294 207.579 36.556 207.027 36.016C206.475 35.476 205.665 35.206 204.597 35.206C203.553 35.206 202.755 35.488 202.203 36.052C201.651 36.604 201.363 37.33 201.339 38.23H207.891ZM219.056 32.488C218.816 32.488 218.612 32.404 218.444 32.236C218.276 32.068 218.192 31.864 218.192 31.624C218.192 31.384 218.276 31.18 218.444 31.012C218.612 30.844 218.816 30.76 219.056 30.76C219.296 30.76 219.5 30.844 219.668 31.012C219.848 31.18 219.938 31.384 219.938 31.624C219.938 31.864 219.848 32.068 219.668 32.236C219.5 32.404 219.296 32.488 219.056 32.488ZM218.372 34.36H219.758V43H218.372V34.36ZM222.463 34.36H223.813V35.656C224.233 35.116 224.743 34.72 225.343 34.468C225.955 34.216 226.603 34.09 227.287 34.09C228.427 34.09 229.273 34.39 229.825 34.99C230.389 35.59 230.671 36.394 230.671 37.402V43H229.285V37.528C229.285 36.784 229.105 36.214 228.745 35.818C228.385 35.41 227.809 35.206 227.017 35.206C225.685 35.206 224.629 35.806 223.849 37.006V43H222.463V34.36ZM237.508 43.27C236.596 43.27 235.774 43.09 235.042 42.73C234.322 42.358 233.758 41.83 233.35 41.146C232.942 40.45 232.738 39.634 232.738 38.698C232.738 37.774 232.942 36.964 233.35 36.268C233.77 35.56 234.346 35.02 235.078 34.648C235.81 34.276 236.638 34.09 237.562 34.09C238.222 34.09 238.804 34.15 239.308 34.27C239.812 34.39 240.262 34.582 240.658 34.846V36.016C239.902 35.476 238.912 35.206 237.688 35.206C236.632 35.206 235.774 35.512 235.114 36.124C234.454 36.736 234.124 37.594 234.124 38.698C234.124 39.802 234.454 40.66 235.114 41.272C235.774 41.872 236.614 42.172 237.634 42.172C238.27 42.172 238.84 42.1 239.344 41.956C239.848 41.812 240.328 41.59 240.784 41.29V42.46C240.364 42.748 239.89 42.952 239.362 43.072C238.846 43.204 238.228 43.27 237.508 43.27ZM242.942 29.698H244.328V43H242.942V29.698ZM250.336 43.27C249.184 43.27 248.296 42.958 247.672 42.334C247.06 41.71 246.754 40.876 246.754 39.832V34.36H248.14V39.904C248.14 41.416 248.926 42.172 250.498 42.172C251.158 42.172 251.734 42.028 252.226 41.74C252.73 41.452 253.18 40.996 253.576 40.372V34.36H254.962V43H253.612V41.704C252.832 42.748 251.74 43.27 250.336 43.27ZM261.637 43.27C260.785 43.27 260.017 43.084 259.333 42.712C258.649 42.34 258.109 41.806 257.713 41.11C257.317 40.414 257.119 39.61 257.119 38.698C257.119 37.798 257.311 37 257.695 36.304C258.091 35.596 258.631 35.05 259.315 34.666C260.011 34.282 260.785 34.09 261.637 34.09C262.465 34.09 263.197 34.24 263.833 34.54C264.481 34.828 264.997 35.254 265.381 35.818V29.698H266.767V43H265.417V41.488C264.961 42.088 264.421 42.538 263.797 42.838C263.185 43.126 262.465 43.27 261.637 43.27ZM261.925 42.172C262.753 42.172 263.473 41.962 264.085 41.542C264.709 41.11 265.141 40.522 265.381 39.778V37.618C265.153 36.874 264.727 36.286 264.103 35.854C263.491 35.422 262.765 35.206 261.925 35.206C261.289 35.206 260.707 35.356 260.179 35.656C259.663 35.944 259.255 36.352 258.955 36.88C258.655 37.408 258.505 38.014 258.505 38.698C258.505 39.382 258.655 39.988 258.955 40.516C259.255 41.044 259.663 41.452 260.179 41.74C260.707 42.028 261.289 42.172 261.925 42.172ZM273.935 43.27C272.363 43.27 271.133 42.868 270.245 42.064C269.369 41.26 268.931 40.138 268.931 38.698C268.931 37.282 269.327 36.16 270.119 35.332C270.911 34.504 272.039 34.09 273.503 34.09C274.487 34.09 275.321 34.282 276.005 34.666C276.689 35.038 277.205 35.554 277.553 36.214C277.901 36.874 278.075 37.624 278.075 38.464V39.22H270.227C270.275 40.204 270.635 40.942 271.307 41.434C271.991 41.926 272.915 42.172 274.079 42.172C274.643 42.172 275.195 42.124 275.735 42.028C276.287 41.92 276.779 41.776 277.211 41.596V42.766C276.851 42.91 276.359 43.03 275.735 43.126C275.123 43.222 274.523 43.27 273.935 43.27ZM276.779 38.23C276.755 37.294 276.467 36.556 275.915 36.016C275.363 35.476 274.553 35.206 273.485 35.206C272.441 35.206 271.643 35.488 271.091 36.052C270.539 36.604 270.251 37.33 270.227 38.23H276.779ZM283.248 43.27C282.684 43.27 282.078 43.186 281.43 43.018C280.782 42.862 280.278 42.664 279.918 42.424V41.254C280.374 41.53 280.896 41.752 281.484 41.92C282.084 42.088 282.66 42.172 283.212 42.172C283.956 42.172 284.49 42.07 284.814 41.866C285.15 41.65 285.318 41.332 285.318 40.912C285.318 40.588 285.246 40.336 285.102 40.156C284.958 39.964 284.718 39.796 284.382 39.652C284.046 39.508 283.524 39.34 282.816 39.148C282.12 38.956 281.562 38.758 281.142 38.554C280.734 38.338 280.422 38.068 280.206 37.744C279.99 37.42 279.882 37.006 279.882 36.502C279.882 35.722 280.194 35.128 280.818 34.72C281.454 34.3 282.294 34.09 283.338 34.09C283.902 34.09 284.43 34.144 284.922 34.252C285.426 34.348 285.846 34.486 286.182 34.666V35.836C285.834 35.644 285.414 35.494 284.922 35.386C284.43 35.266 283.92 35.206 283.392 35.206C282.696 35.206 282.168 35.308 281.808 35.512C281.448 35.716 281.268 36.046 281.268 36.502C281.268 36.814 281.328 37.054 281.448 37.222C281.58 37.39 281.814 37.546 282.15 37.69C282.498 37.822 283.05 37.99 283.806 38.194C284.886 38.494 285.636 38.848 286.056 39.256C286.488 39.652 286.704 40.204 286.704 40.912C286.704 41.644 286.416 42.22 285.84 42.64C285.276 43.06 284.412 43.27 283.248 43.27ZM299.186 43.27C298.034 43.27 297.146 42.958 296.522 42.334C295.91 41.71 295.604 40.876 295.604 39.832V34.36H296.99V39.904C296.99 41.416 297.776 42.172 299.348 42.172C300.008 42.172 300.584 42.028 301.076 41.74C301.58 41.452 302.03 40.996 302.426 40.372V34.36H303.812V43H302.462V41.704C301.682 42.748 300.59 43.27 299.186 43.27ZM306.328 34.36H307.678V35.854C308.53 34.678 309.79 34.09 311.458 34.09C312.31 34.09 313.078 34.282 313.762 34.666C314.446 35.05 314.986 35.59 315.382 36.286C315.778 36.982 315.976 37.786 315.976 38.698C315.976 39.598 315.778 40.396 315.382 41.092C314.998 41.788 314.458 42.328 313.762 42.712C313.078 43.084 312.31 43.27 311.458 43.27C310.678 43.27 309.952 43.126 309.28 42.838C308.608 42.538 308.086 42.106 307.714 41.542V46.942H306.328V34.36ZM311.17 42.172C311.818 42.172 312.4 42.028 312.916 41.74C313.444 41.452 313.852 41.05 314.14 40.534C314.44 40.006 314.59 39.394 314.59 38.698C314.59 38.014 314.44 37.408 314.14 36.88C313.852 36.34 313.444 35.926 312.916 35.638C312.4 35.35 311.818 35.206 311.17 35.206C310.354 35.206 309.634 35.422 309.01 35.854C308.398 36.274 307.966 36.856 307.714 37.6V39.742C307.942 40.474 308.368 41.062 308.992 41.506C309.628 41.95 310.354 42.172 311.17 42.172ZM328.183 43.27C327.367 43.27 326.731 43.03 326.275 42.55C325.831 42.07 325.609 41.386 325.609 40.498V35.44H324.259V34.36H325.609V31.768H326.995V34.36H329.173V35.44H326.995V40.534C326.995 41.134 327.115 41.56 327.355 41.812C327.595 42.052 328.033 42.172 328.669 42.172C328.981 42.172 329.311 42.1 329.659 41.956V43.09C329.263 43.21 328.771 43.27 328.183 43.27ZM335.893 43.27C334.957 43.27 334.123 43.084 333.391 42.712C332.671 42.34 332.107 41.812 331.699 41.128C331.303 40.432 331.105 39.622 331.105 38.698C331.105 37.786 331.309 36.982 331.717 36.286C332.125 35.59 332.689 35.05 333.409 34.666C334.141 34.282 334.969 34.09 335.893 34.09C336.817 34.09 337.639 34.282 338.359 34.666C339.091 35.05 339.661 35.59 340.069 36.286C340.477 36.982 340.681 37.786 340.681 38.698C340.681 39.622 340.477 40.432 340.069 41.128C339.673 41.812 339.109 42.34 338.377 42.712C337.657 43.084 336.829 43.27 335.893 43.27ZM335.893 42.172C336.925 42.172 337.747 41.86 338.359 41.236C338.983 40.6 339.295 39.754 339.295 38.698C339.295 37.63 338.983 36.784 338.359 36.16C337.747 35.524 336.925 35.206 335.893 35.206C334.861 35.206 334.033 35.524 333.409 36.16C332.797 36.784 332.491 37.63 332.491 38.698C332.491 39.754 332.797 40.6 333.409 41.236C334.033 41.86 334.861 42.172 335.893 42.172ZM352.736 43.27C352.1 43.27 351.476 43.204 350.864 43.072C350.264 42.94 349.748 42.76 349.316 42.532V41.182C349.784 41.458 350.324 41.674 350.936 41.83C351.548 41.986 352.136 42.064 352.7 42.064C353.852 42.064 354.728 41.806 355.328 41.29C355.94 40.762 356.246 40.012 356.246 39.04C356.246 37.18 355.148 36.25 352.952 36.25C352.496 36.25 352.022 36.292 351.53 36.376C351.05 36.46 350.63 36.574 350.27 36.718L349.586 36.322L350.054 30.418H356.732V31.606H351.314L351.026 35.224C351.734 35.056 352.508 34.972 353.348 34.972C354.236 34.972 355.004 35.146 355.652 35.494C356.3 35.83 356.792 36.304 357.128 36.916C357.476 37.528 357.65 38.236 357.65 39.04C357.65 40.384 357.242 41.428 356.426 42.172C355.61 42.904 354.38 43.27 352.736 43.27ZM364.517 43.27C363.461 43.27 362.555 43.006 361.799 42.478C361.043 41.95 360.461 41.194 360.053 40.21C359.657 39.226 359.459 38.062 359.459 36.718C359.459 35.374 359.657 34.21 360.053 33.226C360.449 32.242 361.025 31.486 361.781 30.958C362.537 30.418 363.449 30.148 364.517 30.148C365.585 30.148 366.497 30.418 367.253 30.958C368.009 31.486 368.585 32.242 368.981 33.226C369.377 34.21 369.575 35.374 369.575 36.718C369.575 38.062 369.371 39.226 368.963 40.21C368.567 41.194 367.991 41.95 367.235 42.478C366.479 43.006 365.573 43.27 364.517 43.27ZM364.517 42.082C365.273 42.082 365.927 41.866 366.479 41.434C367.043 40.99 367.475 40.366 367.775 39.562C368.087 38.746 368.243 37.798 368.243 36.718C368.243 35.638 368.093 34.696 367.793 33.892C367.505 33.088 367.079 32.464 366.515 32.02C365.951 31.576 365.285 31.354 364.517 31.354C363.749 31.354 363.083 31.576 362.519 32.02C361.955 32.464 361.523 33.088 361.223 33.892C360.935 34.696 360.791 35.638 360.791 36.718C360.791 37.798 360.941 38.746 361.241 39.562C361.553 40.366 361.985 40.99 362.537 41.434C363.101 41.866 363.761 42.082 364.517 42.082ZM376.435 43.27C375.379 43.27 374.473 43.006 373.717 42.478C372.961 41.95 372.379 41.194 371.971 40.21C371.575 39.226 371.377 38.062 371.377 36.718C371.377 35.374 371.575 34.21 371.971 33.226C372.367 32.242 372.943 31.486 373.699 30.958C374.455 30.418 375.367 30.148 376.435 30.148C377.503 30.148 378.415 30.418 379.171 30.958C379.927 31.486 380.503 32.242 380.899 33.226C381.295 34.21 381.493 35.374 381.493 36.718C381.493 38.062 381.289 39.226 380.881 40.21C380.485 41.194 379.909 41.95 379.153 42.478C378.397 43.006 377.491 43.27 376.435 43.27ZM376.435 42.082C377.191 42.082 377.845 41.866 378.397 41.434C378.961 40.99 379.393 40.366 379.693 39.562C380.005 38.746 380.161 37.798 380.161 36.718C380.161 35.638 380.011 34.696 379.711 33.892C379.423 33.088 378.997 32.464 378.433 32.02C377.869 31.576 377.203 31.354 376.435 31.354C375.667 31.354 375.001 31.576 374.437 32.02C373.873 32.464 373.441 33.088 373.141 33.892C372.853 34.696 372.709 35.638 372.709 36.718C372.709 37.798 372.859 38.746 373.159 39.562C373.471 40.366 373.903 40.99 374.455 41.434C375.019 41.866 375.679 42.082 376.435 42.082ZM394.65 43.27C393.798 43.27 393.03 43.084 392.346 42.712C391.662 42.34 391.122 41.806 390.726 41.11C390.33 40.414 390.132 39.61 390.132 38.698C390.132 37.798 390.324 37 390.708 36.304C391.104 35.596 391.644 35.05 392.328 34.666C393.024 34.282 393.798 34.09 394.65 34.09C395.478 34.09 396.21 34.24 396.846 34.54C397.494 34.828 398.01 35.254 398.394 35.818V29.698H399.78V43H398.43V41.488C397.974 42.088 397.434 42.538 396.81 42.838C396.198 43.126 395.478 43.27 394.65 43.27ZM394.938 42.172C395.766 42.172 396.486 41.962 397.098 41.542C397.722 41.11 398.154 40.522 398.394 39.778V37.618C398.166 36.874 397.74 36.286 397.116 35.854C396.504 35.422 395.778 35.206 394.938 35.206C394.302 35.206 393.72 35.356 393.192 35.656C392.676 35.944 392.268 36.352 391.968 36.88C391.668 37.408 391.518 38.014 391.518 38.698C391.518 39.382 391.668 39.988 391.968 40.516C392.268 41.044 392.676 41.452 393.192 41.74C393.72 42.028 394.302 42.172 394.938 42.172ZM403.169 32.488C402.929 32.488 402.725 32.404 402.557 32.236C402.389 32.068 402.305 31.864 402.305 31.624C402.305 31.384 402.389 31.18 402.557 31.012C402.725 30.844 402.929 30.76 403.169 30.76C403.409 30.76 403.613 30.844 403.781 31.012C403.961 31.18 404.051 31.384 404.051 31.624C404.051 31.864 403.961 32.068 403.781 32.236C403.613 32.404 403.409 32.488 403.169 32.488ZM402.485 34.36H403.871V43H402.485V34.36ZM407.206 35.44H405.856V34.36H407.206V32.452C407.206 31.516 407.458 30.808 407.962 30.328C408.478 29.848 409.168 29.608 410.032 29.608C410.488 29.608 410.914 29.668 411.31 29.788V30.958C410.974 30.802 410.626 30.724 410.266 30.724C409.69 30.724 409.264 30.874 408.988 31.174C408.724 31.462 408.592 31.912 408.592 32.524V34.36H410.788V35.44H408.592V43H407.206V35.44ZM412.919 35.44H411.569V34.36H412.919V32.452C412.919 31.516 413.171 30.808 413.675 30.328C414.191 29.848 414.881 29.608 415.745 29.608C416.201 29.608 416.627 29.668 417.023 29.788V30.958C416.687 30.802 416.339 30.724 415.979 30.724C415.403 30.724 414.977 30.874 414.701 31.174C414.437 31.462 414.305 31.912 414.305 32.524V34.36H416.501V35.44H414.305V43H412.919V35.44ZM423.103 43.27C421.531 43.27 420.301 42.868 419.413 42.064C418.537 41.26 418.099 40.138 418.099 38.698C418.099 37.282 418.495 36.16 419.287 35.332C420.079 34.504 421.207 34.09 422.671 34.09C423.655 34.09 424.489 34.282 425.173 34.666C425.857 35.038 426.373 35.554 426.721 36.214C427.069 36.874 427.243 37.624 427.243 38.464V39.22H419.395C419.443 40.204 419.803 40.942 420.475 41.434C421.159 41.926 422.083 42.172 423.247 42.172C423.811 42.172 424.363 42.124 424.903 42.028C425.455 41.92 425.947 41.776 426.379 41.596V42.766C426.019 42.91 425.527 43.03 424.903 43.126C424.291 43.222 423.691 43.27 423.103 43.27ZM425.947 38.23C425.923 37.294 425.635 36.556 425.083 36.016C424.531 35.476 423.721 35.206 422.653 35.206C421.609 35.206 420.811 35.488 420.259 36.052C419.707 36.604 419.419 37.33 419.395 38.23H425.947ZM429.41 34.36H430.76V36.052C431.456 34.924 432.758 34.36 434.666 34.36V35.476C432.578 35.476 431.288 36.166 430.796 37.546V43H429.41V34.36ZM440.558 43.27C438.986 43.27 437.756 42.868 436.868 42.064C435.992 41.26 435.554 40.138 435.554 38.698C435.554 37.282 435.95 36.16 436.742 35.332C437.534 34.504 438.662 34.09 440.126 34.09C441.11 34.09 441.944 34.282 442.628 34.666C443.312 35.038 443.828 35.554 444.176 36.214C444.524 36.874 444.698 37.624 444.698 38.464V39.22H436.85C436.898 40.204 437.258 40.942 437.93 41.434C438.614 41.926 439.538 42.172 440.702 42.172C441.266 42.172 441.818 42.124 442.358 42.028C442.91 41.92 443.402 41.776 443.834 41.596V42.766C443.474 42.91 442.982 43.03 442.358 43.126C441.746 43.222 441.146 43.27 440.558 43.27ZM443.402 38.23C443.378 37.294 443.09 36.556 442.538 36.016C441.986 35.476 441.176 35.206 440.108 35.206C439.064 35.206 438.266 35.488 437.714 36.052C437.162 36.604 436.874 37.33 436.85 38.23H443.402ZM446.865 34.36H448.215V35.656C448.635 35.116 449.145 34.72 449.745 34.468C450.357 34.216 451.005 34.09 451.689 34.09C452.829 34.09 453.675 34.39 454.227 34.99C454.791 35.59 455.073 36.394 455.073 37.402V43H453.687V37.528C453.687 36.784 453.507 36.214 453.147 35.818C452.787 35.41 452.211 35.206 451.419 35.206C450.087 35.206 449.031 35.806 448.251 37.006V43H446.865V34.36ZM460.704 43.27C459.888 43.27 459.252 43.03 458.796 42.55C458.352 42.07 458.13 41.386 458.13 40.498V35.44H456.78V34.36H458.13V31.768H459.516V34.36H461.694V35.44H459.516V40.534C459.516 41.134 459.636 41.56 459.876 41.812C460.116 42.052 460.554 42.172 461.19 42.172C461.502 42.172 461.832 42.1 462.18 41.956V43.09C461.784 43.21 461.292 43.27 460.704 43.27ZM470.912 34.36H472.262V35.854C473.114 34.678 474.374 34.09 476.042 34.09C476.894 34.09 477.662 34.282 478.346 34.666C479.03 35.05 479.57 35.59 479.966 36.286C480.362 36.982 480.56 37.786 480.56 38.698C480.56 39.598 480.362 40.396 479.966 41.092C479.582 41.788 479.042 42.328 478.346 42.712C477.662 43.084 476.894 43.27 476.042 43.27C475.262 43.27 474.536 43.126 473.864 42.838C473.192 42.538 472.67 42.106 472.298 41.542V46.942H470.912V34.36ZM475.754 42.172C476.402 42.172 476.984 42.028 477.5 41.74C478.028 41.452 478.436 41.05 478.724 40.534C479.024 40.006 479.174 39.394 479.174 38.698C479.174 38.014 479.024 37.408 478.724 36.88C478.436 36.34 478.028 35.926 477.5 35.638C476.984 35.35 476.402 35.206 475.754 35.206C474.938 35.206 474.218 35.422 473.594 35.854C472.982 36.274 472.55 36.856 472.298 37.6V39.742C472.526 40.474 472.952 41.062 473.576 41.506C474.212 41.95 474.938 42.172 475.754 42.172ZM482.725 34.36H484.075V36.052C484.771 34.924 486.073 34.36 487.981 34.36V35.476C485.893 35.476 484.603 36.166 484.111 37.546V43H482.725V34.36ZM493.938 43.27C493.002 43.27 492.168 43.084 491.436 42.712C490.716 42.34 490.152 41.812 489.744 41.128C489.348 40.432 489.15 39.622 489.15 38.698C489.15 37.786 489.354 36.982 489.762 36.286C490.17 35.59 490.734 35.05 491.454 34.666C492.186 34.282 493.014 34.09 493.938 34.09C494.862 34.09 495.684 34.282 496.404 34.666C497.136 35.05 497.706 35.59 498.114 36.286C498.522 36.982 498.726 37.786 498.726 38.698C498.726 39.622 498.522 40.432 498.114 41.128C497.718 41.812 497.154 42.34 496.422 42.712C495.702 43.084 494.874 43.27 493.938 43.27ZM493.938 42.172C494.97 42.172 495.792 41.86 496.404 41.236C497.028 40.6 497.34 39.754 497.34 38.698C497.34 37.63 497.028 36.784 496.404 36.16C495.792 35.524 494.97 35.206 493.938 35.206C492.906 35.206 492.078 35.524 491.454 36.16C490.842 36.784 490.536 37.63 490.536 38.698C490.536 39.754 490.842 40.6 491.454 41.236C492.078 41.86 492.906 42.172 493.938 42.172ZM504.777 43.27C503.925 43.27 503.157 43.084 502.473 42.712C501.789 42.34 501.249 41.806 500.853 41.11C500.457 40.414 500.259 39.61 500.259 38.698C500.259 37.798 500.451 37 500.835 36.304C501.231 35.596 501.771 35.05 502.455 34.666C503.151 34.282 503.925 34.09 504.777 34.09C505.605 34.09 506.337 34.24 506.973 34.54C507.621 34.828 508.137 35.254 508.521 35.818V29.698H509.907V43H508.557V41.488C508.101 42.088 507.561 42.538 506.937 42.838C506.325 43.126 505.605 43.27 504.777 43.27ZM505.065 42.172C505.893 42.172 506.613 41.962 507.225 41.542C507.849 41.11 508.281 40.522 508.521 39.778V37.618C508.293 36.874 507.867 36.286 507.243 35.854C506.631 35.422 505.905 35.206 505.065 35.206C504.429 35.206 503.847 35.356 503.319 35.656C502.803 35.944 502.395 36.352 502.095 36.88C501.795 37.408 501.645 38.014 501.645 38.698C501.645 39.382 501.795 39.988 502.095 40.516C502.395 41.044 502.803 41.452 503.319 41.74C503.847 42.028 504.429 42.172 505.065 42.172ZM515.924 43.27C514.772 43.27 513.884 42.958 513.26 42.334C512.648 41.71 512.342 40.876 512.342 39.832V34.36H513.728V39.904C513.728 41.416 514.514 42.172 516.086 42.172C516.746 42.172 517.322 42.028 517.814 41.74C518.318 41.452 518.768 40.996 519.164 40.372V34.36H520.55V43H519.2V41.704C518.42 42.748 517.328 43.27 515.924 43.27ZM527.477 43.27C526.565 43.27 525.743 43.09 525.011 42.73C524.291 42.358 523.727 41.83 523.319 41.146C522.911 40.45 522.707 39.634 522.707 38.698C522.707 37.774 522.911 36.964 523.319 36.268C523.739 35.56 524.315 35.02 525.047 34.648C525.779 34.276 526.607 34.09 527.531 34.09C528.191 34.09 528.773 34.15 529.277 34.27C529.781 34.39 530.231 34.582 530.627 34.846V36.016C529.871 35.476 528.881 35.206 527.657 35.206C526.601 35.206 525.743 35.512 525.083 36.124C524.423 36.736 524.093 37.594 524.093 38.698C524.093 39.802 524.423 40.66 525.083 41.272C525.743 41.872 526.583 42.172 527.603 42.172C528.239 42.172 528.809 42.1 529.313 41.956C529.817 41.812 530.297 41.59 530.753 41.29V42.46C530.333 42.748 529.859 42.952 529.331 43.072C528.815 43.204 528.197 43.27 527.477 43.27ZM536.114 43.27C535.298 43.27 534.662 43.03 534.206 42.55C533.762 42.07 533.54 41.386 533.54 40.498V35.44H532.19V34.36H533.54V31.768H534.926V34.36H537.104V35.44H534.926V40.534C534.926 41.134 535.046 41.56 535.286 41.812C535.526 42.052 535.964 42.172 536.6 42.172C536.912 42.172 537.242 42.1 537.59 41.956V43.09C537.194 43.21 536.702 43.27 536.114 43.27ZM542.139 43.27C541.575 43.27 540.969 43.186 540.321 43.018C539.673 42.862 539.169 42.664 538.809 42.424V41.254C539.265 41.53 539.787 41.752 540.375 41.92C540.975 42.088 541.551 42.172 542.103 42.172C542.847 42.172 543.381 42.07 543.705 41.866C544.041 41.65 544.209 41.332 544.209 40.912C544.209 40.588 544.137 40.336 543.993 40.156C543.849 39.964 543.609 39.796 543.273 39.652C542.937 39.508 542.415 39.34 541.707 39.148C541.011 38.956 540.453 38.758 540.033 38.554C539.625 38.338 539.313 38.068 539.097 37.744C538.881 37.42 538.773 37.006 538.773 36.502C538.773 35.722 539.085 35.128 539.709 34.72C540.345 34.3 541.185 34.09 542.229 34.09C542.793 34.09 543.321 34.144 543.813 34.252C544.317 34.348 544.737 34.486 545.073 34.666V35.836C544.725 35.644 544.305 35.494 543.813 35.386C543.321 35.266 542.811 35.206 542.283 35.206C541.587 35.206 541.059 35.308 540.699 35.512C540.339 35.716 540.159 36.046 540.159 36.502C540.159 36.814 540.219 37.054 540.339 37.222C540.471 37.39 540.705 37.546 541.041 37.69C541.389 37.822 541.941 37.99 542.697 38.194C543.777 38.494 544.527 38.848 544.947 39.256C545.379 39.652 545.595 40.204 545.595 40.912C545.595 41.644 545.307 42.22 544.731 42.64C544.167 43.06 543.303 43.27 542.139 43.27ZM548.178 43C547.95 43 547.758 42.928 547.602 42.784C547.458 42.628 547.386 42.436 547.386 42.208C547.386 41.98 547.458 41.788 547.602 41.632C547.758 41.476 547.95 41.398 548.178 41.398C548.406 41.398 548.598 41.476 548.754 41.632C548.91 41.788 548.988 41.98 548.988 42.208C548.988 42.436 548.91 42.628 548.754 42.784C548.598 42.928 548.406 43 548.178 43Z" fill="#28272C"/>
</svg>
