<svg width="110" height="12" viewBox="0 0 110 12" fill="none" xmlns="http://www.w3.org/2000/svg">
<path d="M0.512 0.815999H3.072L5.072 8.048L7.04 0.815999H8.912L10.816 8.048L12.816 0.815999H15.36L12.224 12H9.936L7.936 4.912L5.952 12H3.648L0.512 0.815999ZM26.3226 0.815999H34.0826V2.848H28.7546V5.44H32.6746V7.392H28.7546V9.968H34.0826V12H26.3226V0.815999ZM64.2139 0.815999H66.5979L71.0619 12H68.5819L67.6219 9.568H63.1899L62.2299 12H59.7339L64.2139 0.815999ZM66.9819 7.632L65.3979 3.376L63.8139 7.632H66.9819ZM82.0133 0.815999H86.8613C88.1306 0.815999 89.1173 1.136 89.8213 1.776C90.5359 2.40533 90.8933 3.31733 90.8933 4.512C90.8933 5.344 90.7013 6.05333 90.3173 6.64C89.9333 7.216 89.3893 7.63733 88.6853 7.904L90.8133 12H88.3173L86.3493 8.208H84.4453V12H82.0133V0.815999ZM86.4293 6.176C87.0479 6.176 87.5333 6.04267 87.8853 5.776C88.2479 5.50933 88.4293 5.088 88.4293 4.512C88.4293 3.904 88.2533 3.47733 87.9013 3.232C87.5493 2.976 87.0586 2.848 86.4293 2.848H84.4453V6.176H86.4293ZM101.848 0.815999H109.608V2.848H104.28V5.44H108.2V7.392H104.28V9.968H109.608V12H101.848V0.815999Z" fill="#28272C"/>
</svg>
